<svg xmlns="http://www.w3.org/2000/svg" viewBox="0 0 828.76 117.66"><defs><style>.cls-1{fill:#e30613;}</style></defs><title>bbbbFichier 2</title><g id="Calque_2" data-name="Calque 2"><g id="Calque_1-2" data-name="Calque 1"><path class="cls-1" d="M825.3,52a5.16,5.16,0,0,1-1.07-.14,1.47,1.47,0,0,1-1-1.68A2,2,0,0,1,825,48.37h.41a3.33,3.33,0,0,0,2.89-1.17,2.21,2.21,0,0,0,.27-2.25A3.2,3.2,0,0,0,826,43.36l-.57,0a2.8,2.8,0,0,1-1.72-.46,1.57,1.57,0,0,1-.56-1.2,2,2,0,0,1,.66-1.44,2.52,2.52,0,0,1,1.65-.5l.82-.09a3,3,0,0,0,2.43-2.16,2.23,2.23,0,0,0-1.13-2.36,4,4,0,0,0-2.11-.46,6,6,0,0,1-.64,0,2.13,2.13,0,0,1-1.41-.76,1.52,1.52,0,0,1-.26-1.17,6.51,6.51,0,0,1,.49-1.36c.49-1.11,1.1-2.48.55-3.77a2.5,2.5,0,0,0-1.75-1.44,10.23,10.23,0,0,0-1.51-.23c-1.47-.15-1.94-.25-2.12-1.33a4,4,0,0,1,.55-2,4.61,4.61,0,0,0,.54-3.57A2.51,2.51,0,0,0,818,17.43a6.53,6.53,0,0,0-1.2-.11,6.71,6.71,0,0,1-.67,0,2.1,2.1,0,0,1-1.39-.75,1.58,1.58,0,0,1-.26-1.2A5.93,5.93,0,0,1,815,14c.48-1.1,1.08-2.45.54-3.75a2.51,2.51,0,0,0-1.75-1.43,9.9,9.9,0,0,0-1.48-.24c-1.57-.18-2-.33-2.15-1.33a3.93,3.93,0,0,1,.53-2A5.17,5.17,0,0,0,811.34,2,2.26,2.26,0,0,0,809.07.12a2.81,2.81,0,0,0-2.12,1,12.29,12.29,0,0,0-1,1.44c-.13.21-.26.43-.4.63l-.63,1a11.37,11.37,0,0,1-2.65,3.26A6.46,6.46,0,0,1,799,8.53c-1.28,0-1.61-.63-1.75-1.1a3.5,3.5,0,0,1,.48-2.25,6.06,6.06,0,0,0,.69-2.82A2.29,2.29,0,0,0,796.06.13a2.8,2.8,0,0,0-2.11,1,11.82,11.82,0,0,0-1,1.44c-.14.21-.27.43-.41.63s-.42.65-.62,1a11.23,11.23,0,0,1-2.66,3.26A6.46,6.46,0,0,1,786,8.53c-1.27,0-1.6-.63-1.74-1.1a3.56,3.56,0,0,1,.48-2.29,7,7,0,0,0,.7-2.48,2.49,2.49,0,0,0-.67-1.82A2.35,2.35,0,0,0,783,.13a2.66,2.66,0,0,0-2,1,8.8,8.8,0,0,0-.92,1.33l-.36.57L779,4.07a12.73,12.73,0,0,1-2.45,3.16c-1.44,1.15-3.24,1.27-5.15,1.4l-.62,0a3.46,3.46,0,0,0-3.28,1.77l-.92,1.4c-.59.91-1.2,1.84-1.83,2.73-1.17,1.65-2.83,2.47-5.4,2.65-.24,0-.5,0-.77,0-1.16,0-2.6,0-3.57,1.13A22,22,0,0,0,753,21.32c-1.36,2.19-2.54,4.08-5.22,4.46a6.56,6.56,0,0,1-.87,0h-1.12a4.94,4.94,0,0,0-3.51,1,8.89,8.89,0,0,0-1.46,2c-.17.29-.33.57-.5.82l-.45.69a9,9,0,0,1-3.26,3.52,11.27,11.27,0,0,1-4.84.84c-.73,0-1.48,0-2.25-.1A2.14,2.14,0,0,1,728,34a.77.77,0,0,1-.15-.63c.14-.88,1.74-1.74,3.15-2a10,10,0,0,1,1.88-.12,8.61,8.61,0,0,0,3.06-.37,2.37,2.37,0,0,0,1.6-2.4,2.6,2.6,0,0,0-2.09-2.32,6.3,6.3,0,0,0-1.26-.12,3.81,3.81,0,0,1-1.19-.16,1.27,1.27,0,0,1-.77-.82.94.94,0,0,1,.24-.85,5.63,5.63,0,0,1,3.65-1.61c.23,0,.58,0,1,0,1.58,0,3.75,0,4.55-1.53a2.26,2.26,0,0,0,.86.92,2.3,2.3,0,0,0,1.28.4,3,3,0,0,0,2.36-1.55c.5-.71,1-1.44,1.43-2.15s.93-1.42,1.41-2.11a6.4,6.4,0,0,1,5.19-2.67l.84-.05c.59,0,1.21-.06,1.82-.15a2.9,2.9,0,0,0,2.31-1.74,2.24,2.24,0,0,0-.5-2.31,3.61,3.61,0,0,0-2.76-.93l-.5,0a1.73,1.73,0,0,1-1.72-1.5,4.38,4.38,0,0,1,.55-1.92A5.28,5.28,0,0,0,754.87,2,2.26,2.26,0,0,0,752.6.12a2.81,2.81,0,0,0-2.12,1,11.18,11.18,0,0,0-1,1.44l-.4.63c-.22.32-.42.65-.63,1a11.37,11.37,0,0,1-2.65,3.26,6.63,6.63,0,0,1-3.38,1c-1.52,0-1.74-.76-1.76-1.5a5.58,5.58,0,0,1,.53-1.71c.52-1.25,1.16-2.79.31-4.1A2.24,2.24,0,0,0,739.62,0c-1.58,0-2.73,1.88-3.5,3.13l-.26.42c-.16.24-.34.54-.54.87-.6,1-1.71,2.84-2.53,2.93h-.22c-.22,0-.33,0-.34-.06-.14-.2-.17-.82.47-2.68l.08-.25c0-.09.07-.18.1-.28a3,3,0,0,0-.23-3.2,2.27,2.27,0,0,0-1.71-.82,3,3,0,0,0-2.35,1.4C728,2.23,727.53,3,727,3.78s-.88,1.36-1.34,2A6.28,6.28,0,0,1,721,8.57a3.74,3.74,0,0,1-.75-.08c-.72-.15-.9-.45-1-.55-.45-.78.11-2.44.47-3.53l.08-.22,0-.11c.29-.84.87-2.6-.74-3.63a2.43,2.43,0,0,0-1.28-.4,3.09,3.09,0,0,0-2.36,1.56c-.5.71-1,1.44-1.44,2.15s-.92,1.42-1.4,2.11a6.4,6.4,0,0,1-5.19,2.67l-.82,0c-.6,0-1.21.06-1.83.15a3,3,0,0,0-2.36,1.84,2.26,2.26,0,0,0,.63,2.32,3.51,3.51,0,0,0,2.53.81c.19,0,.38,0,.55,0,.43,0,1.81.32,1.81,1.67a5.28,5.28,0,0,1-.54,1.7c-.51,1.19-1.09,2.54-.46,3.83a2.21,2.21,0,0,0,2,1.47,3.33,3.33,0,0,0,2.4-1.51,2.77,2.77,0,0,0,1.88,1.38,8.63,8.63,0,0,0,1.2.11,3.46,3.46,0,0,1,1.19.16,1.15,1.15,0,0,1,.76.81,1.21,1.21,0,0,1-.46,1.06c-1.43,1.3-3.33,1.42-5.34,1.55l-.68,0h-.11c-.93.06-2.68.19-3,2a2.22,2.22,0,0,0,.37,1.86A3.68,3.68,0,0,0,709.89,31H710c1,.07,1.57.14,1.94.63a.73.73,0,0,1,.2.65,3.22,3.22,0,0,1-1.74,1.59,8.42,8.42,0,0,1-3.45.65,19.42,19.42,0,0,0-2.1.18,3,3,0,0,0-2.25,1.55,2.24,2.24,0,0,0,.17,2.16,3.16,3.16,0,0,0,2.89,1.26,5.66,5.66,0,0,1,.6,0c.35,0,1.52.26,1.56,1.1S706.39,42.57,705,43a10.13,10.13,0,0,1-2.39.25,14,14,0,0,0-2.38.21,2.66,2.66,0,0,0-2.15,2.35,2.32,2.32,0,0,0,1.62,2.38,4.81,4.81,0,0,0,1.72.23,4.43,4.43,0,0,1,1,.08,1.55,1.55,0,0,1,1,.82.79.79,0,0,1-.09.75c-.64,1-2.36,1.64-3.78,1.79-.2,0-.48,0-.73,0h-.69c-1.38,0-2.92.08-3.78,1.05a2.25,2.25,0,0,0-.52,2.3,2.91,2.91,0,0,0,2.27,1.76,7.55,7.55,0,0,0,1,.09,2.46,2.46,0,0,1,1.63.44.83.83,0,0,1,.36.67,1.81,1.81,0,0,1-.8,1.16,6.65,6.65,0,0,1-3.86,1.22l-.3,0c-.62,0-1.4.1-2.17.1-2.13,0-2.92-.45-3.22-.82a1.76,1.76,0,0,1-.11-1.51,8.38,8.38,0,0,1,.33-.92c.5-1.26,1.12-2.82.52-4.06a2.26,2.26,0,0,0-1.44-1.18,2.05,2.05,0,0,0-.65-.1c-1.75,0-2.86,1.94-3.66,3.36-.16.27-.29.51-.41.69s-.29.45-.45.71c-.57.94-1.53,2.51-2.32,2.51l-.16,0c-.31-.08-.37-.19-.39-.23-.24-.46.24-1.73.5-2.41.11-.29.21-.55.28-.78a3.34,3.34,0,0,0,0-2.62,2.22,2.22,0,0,0-1.38-1.1,2.35,2.35,0,0,0-.73-.11,3,3,0,0,0-2.43,1.71c-.31.47-.62.93-.92,1.4-.59.9-1.2,1.84-1.83,2.73a6.69,6.69,0,0,1-4.64,2.71,2.52,2.52,0,0,1-1.17-.27c-1-.56-.94-1.45-.15-3.66.14-.38.27-.74.37-1.09a3.1,3.1,0,0,0-.38-2.68,2.16,2.16,0,0,0-1.75-.86,2.52,2.52,0,0,0-.6.07,3.22,3.22,0,0,0-2,1.72c-.07.1-.12.2-.18.29-.3.44-.59.89-.88,1.34-.59.93-1.2,1.89-1.87,2.75a6.75,6.75,0,0,1-4.51,2.39,1.93,1.93,0,0,1-1.36-.47c-.76-.69-.54-1.55.09-3.23a13.2,13.2,0,0,0,.51-1.58,3,3,0,0,0-.53-2.45,2.19,2.19,0,0,0-1.72-.84,2.52,2.52,0,0,0-1.14.28A4,4,0,0,0,650.09,54c-.07.12-.14.24-.21.34-.29.43-.57.88-.85,1.32a24.94,24.94,0,0,1-2,2.86c-1.45,1.67-3.45,1.94-5.73,2.1a4.79,4.79,0,0,1-.55,0,5.63,5.63,0,0,0-1.89.25,2.31,2.31,0,0,0-1.61,2.37,2.66,2.66,0,0,0,2.17,2.35,6.27,6.27,0,0,0,1.19.11,3.7,3.7,0,0,1,1.12.15,1.71,1.71,0,0,1,1,2.22c-.05.18-.16.47-.28.79-.51,1.35-1.22,3.21-.4,4.45a2.23,2.23,0,0,0,1.89,1h.1c1.74,0,2.88-2,3.72-3.51.17-.3.33-.59.45-.77,1.16-1.74,2.17-3.25,4.06-3.87a4.92,4.92,0,0,1,1.47-.24,2.32,2.32,0,0,1,1.85.68,1.81,1.81,0,0,1,.09,1.63c0,.13-.1.31-.18.52-.63,1.8-1.18,3.64-.37,4.79a2,2,0,0,0,1.68.8,3.4,3.4,0,0,0,.75-.09,3.2,3.2,0,0,0,1.71-1.14c.64,1.12,2,1.21,2.81,1.26l.39,0c1.18.11,1.82.47,1.89,1.08.11.92-1.61,1.83-2.8,2.16a10.3,10.3,0,0,1-2.41.26,13.87,13.87,0,0,0-2.37.2,2.66,2.66,0,0,0-2.15,2.36,2.3,2.3,0,0,0,1.61,2.37A4.91,4.91,0,0,0,658,83a4,4,0,0,1,.95.07,1.53,1.53,0,0,1,1,.83.78.78,0,0,1-.08.75c-.64,1-2.35,1.63-3.77,1.78a6.35,6.35,0,0,1-.68,0h-1a4.91,4.91,0,0,0-3.44.94,8.31,8.31,0,0,0-1.39,1.92,8.29,8.29,0,0,1-.44.73l-.55.86a10.25,10.25,0,0,1-2.86,3.34,9.45,9.45,0,0,1-4.59,1l-1.06.07h-.16a3,3,0,0,0-1.56.42,2.7,2.7,0,0,0-.81.87l-.09.13c-.52.74-1,1.5-1.5,2.24s-.91,1.41-1.39,2.09a6.1,6.1,0,0,1-4.81,2.75,3.55,3.55,0,0,1-.46,0,1.45,1.45,0,0,1-1.11-.48c-.5-.78.12-2.63.49-3.73l.06-.19c.29-.87.88-2.64-.72-3.67a2.43,2.43,0,0,0-1.28-.4,3,3,0,0,0-2.37,1.56c-.5.7-1,1.44-1.43,2.14s-.92,1.43-1.41,2.11a6.29,6.29,0,0,1-4.66,2.72,3.31,3.31,0,0,1-.83-.1c-.7-.18-.86-.48-.92-.58-.42-.78.15-2.4.52-3.47q.11-.28.18-.54c.23-.68.76-2.28-.65-3.33a4.18,4.18,0,0,0-2.51-.68c-.78,0-1.24-.05-1.61-.42-.73-.71-.51-1.59.12-3.27a12.27,12.27,0,0,0,.5-1.52,2.43,2.43,0,0,0-.93-2.85,4.06,4.06,0,0,0-2.36-.55,3.35,3.35,0,0,1-1.28-.19c-1.12-.6-1-1.62-.18-3.82.11-.32.22-.62.31-.9a2.66,2.66,0,0,0-.72-3.13,3.94,3.94,0,0,0-2.42-.59,3.58,3.58,0,0,1-.92-.07,1.49,1.49,0,0,1-1-.82.78.78,0,0,1,.08-.75c.64-1,2.36-1.64,3.77-1.79.21,0,.49,0,.71,0h.78c1.35,0,2.85-.08,3.72-1a2.26,2.26,0,0,0,.51-2.31,2.88,2.88,0,0,0-2.27-1.75c-.34,0-.67-.07-1-.09a2.52,2.52,0,0,1-1.66-.44c-.56-.5-.48-.76-.45-.84.31-1,2.84-2.05,4.19-2.17.2,0,.5,0,.82,0,1.36,0,3.23,0,4.21-1.09a2.28,2.28,0,0,0,.58-1.72C616,60.89,614,60.73,613,60.65c-1.22-.09-1.89-.24-2.17-.81a.82.82,0,0,1,0-.86c.56-1,3.06-1.74,4.6-1.85l.82,0a14.25,14.25,0,0,0,1.83-.15,2.92,2.92,0,0,0,2.35-1.84,2.23,2.23,0,0,0-.62-2.32,4.4,4.4,0,0,0-2.86-.94c-.66-.06-1.55-.15-1.77-.43a1,1,0,0,1-.06-.75c.13-.83,1.61-1.66,3-2a12,12,0,0,1,2-.22l.59,0,.59,0a5.85,5.85,0,0,0,2-.26,2.31,2.31,0,0,0,1.62-2.38,2.66,2.66,0,0,0-2.16-2.34,6.38,6.38,0,0,0-1.2-.11,3.44,3.44,0,0,1-1.19-.17,1.13,1.13,0,0,1-.76-.81,1.21,1.21,0,0,1,.46-1.06c1.42-1.28,3.3-1.41,5.29-1.54l.62,0,.26,0a2.92,2.92,0,0,0,2.78-1.4,2.24,2.24,0,0,0,0-2.13,3.5,3.5,0,0,0-2.66-1.45l-.41,0c-.93-.07-1.53-.14-1.9-.62a.7.7,0,0,1-.2-.62,2.81,2.81,0,0,1,1.4-1.45,8.85,8.85,0,0,1,4-.86c.55,0,1.13-.06,1.71-.13l.13,0a2.84,2.84,0,0,0,1.62-.58,6.65,6.65,0,0,0,1.42-1.9,7.44,7.44,0,0,1,.39-.65q.32-.48.63-1a11.46,11.46,0,0,1,2.65-3.25c1.39-1,3.08-1.08,4.88-1.19l.83-.05.23,0a3.14,3.14,0,0,0,1.85-.53,5.15,5.15,0,0,0,1.32-1.68c.11-.18.21-.36.31-.51.25-.38.5-.78.75-1.19a14.81,14.81,0,0,1,2.29-3.06,6.74,6.74,0,0,1,3.88-1.55,1.57,1.57,0,0,1,1.68,1c.27.69,0,1.37-.43,2.41a6.92,6.92,0,0,0-.71,2.5,2.47,2.47,0,0,0,.67,1.82,2.32,2.32,0,0,0,1.71.71,2.66,2.66,0,0,0,2-.95,8.8,8.8,0,0,0,.92-1.33c.12-.19.24-.39.36-.57l.7-1.09a12.55,12.55,0,0,1,2.45-3.16,6.71,6.71,0,0,1,3.65-1.3c1.32,0,1.62.66,1.74,1.24a4.47,4.47,0,0,1-.53,2.3,9.59,9.59,0,0,0-.61,1.83,2.52,2.52,0,0,0,.36,2,3,3,0,0,0,2.13,1.09,7.2,7.2,0,0,0,.8.07,2.88,2.88,0,0,1,1.54.37c.23.17.94.69.45,2.26-.09.28-.22.6-.35.93a8.1,8.1,0,0,0-.67,2.24,2.49,2.49,0,0,0,2.18,2.76,8.22,8.22,0,0,0,1.17.11,3.58,3.58,0,0,1,1.21.16,1.23,1.23,0,0,1,.76.82,1,1,0,0,1-.27.89c-1.27,1.42-3.35,1.56-5.36,1.7l-.49,0-.36,0a3.39,3.39,0,0,0-2.58.89,2.25,2.25,0,0,0-.52,2.34,3,3,0,0,0,2.51,1.74c.22,0,.45,0,.67.06a3.06,3.06,0,0,1,1.65.38c.26.19.94.69.45,2.24-.1.31-.21.61-.32.91a15.35,15.35,0,0,0-.52,1.62,3.19,3.19,0,0,0,.51,2.66,2.06,2.06,0,0,0,1.65.82,2.61,2.61,0,0,0,1.17-.3,3.74,3.74,0,0,0,1.42-1.52l.18-.29,1.56-2.34.19-.29.2-.31c.42-.63,1.51-2.3,2.18-2.3a.68.68,0,0,1,.42.23c.4.39.06,1.34-.39,2.45a10,10,0,0,0-.48,1.34,3,3,0,0,0,.49,2.45,2.24,2.24,0,0,0,1.76.85,2.79,2.79,0,0,0,.63-.08,3.32,3.32,0,0,0,1.92-1.71l.18-.29c.3-.44.58-.89.87-1.34.6-.93,1.21-1.89,1.87-2.75,1.33-1.73,3.15-2.19,5.68-2.37l.63,0a9.07,9.07,0,0,0,1.53-.14,2.44,2.44,0,0,0,.05-4.84,8,8,0,0,0-1.24-.12,4.1,4.1,0,0,1-1-.11A1.7,1.7,0,0,1,693,32.3c.06-.22.19-.56.33-.91.58-1.44,1.55-3.86-.42-5a4.13,4.13,0,0,0-2-.41,5.6,5.6,0,0,1-.64,0,2.12,2.12,0,0,1-1.41-.75,1.59,1.59,0,0,1-.27-1.18,7.3,7.3,0,0,1,.54-1.64,9.36,9.36,0,0,0,.63-2,2.48,2.48,0,0,0-1.87-3,10.23,10.23,0,0,0-1.51-.23c-1.47-.15-2-.25-2.12-1.34a4.46,4.46,0,0,1,.54-2.22,9.69,9.69,0,0,0,.61-1.84,2.45,2.45,0,0,0-2-3.05,6.35,6.35,0,0,0-1.19-.11,6.5,6.5,0,0,1-.66,0,2.16,2.16,0,0,1-1.4-.75,1.6,1.6,0,0,1-.27-1.19,7.27,7.27,0,0,1,.47-1.34c.55-1.31,1.3-3.11.17-4.43A2.29,2.29,0,0,0,678.78,0c-1.61,0-2.74,1.89-3.49,3.15l-.31.5c-.16.23-.31.47-.47.71a9.29,9.29,0,0,1-3.09,3.43,5.7,5.7,0,0,1-2.54.62,2.25,2.25,0,0,1-1.76-.59A1.75,1.75,0,0,1,667,6.33a7.27,7.27,0,0,1,.36-1c.56-1.39,1.5-3.72-.35-4.91a2.29,2.29,0,0,0-1.25-.38c-1.69,0-2.81,1.94-3.55,3.22-.14.24-.26.45-.37.61l-.35.53c-1,1.45-1.86,2.83-3.36,3.53a5.39,5.39,0,0,1-2.21.48,2.27,2.27,0,0,1-1.78-.6A1.78,1.78,0,0,1,654,6.3c.06-.2.19-.54.33-.89.49-1.26,1.1-2.83.51-4.06A2.26,2.26,0,0,0,653.41.18a2.05,2.05,0,0,0-.65-.1c-1.76,0-2.91,2-3.74,3.47l-.41.69-.07.1c-1.16,1.75-2.17,3.26-4.06,3.88a9.73,9.73,0,0,1-2.69.33,15.75,15.75,0,0,0-2.35.2,2.79,2.79,0,0,0-1.33.57,5.07,5.07,0,0,0-1.1,1.44c-.09.16-.17.31-.26.44-.28.41-.54.84-.81,1.27a17.75,17.75,0,0,1-2.13,3c-1.52,1.56-3.58,1.71-5.76,1.87h-.45a4.12,4.12,0,0,0-2.24.49,2.82,2.82,0,0,0-.81.87l-.09.13c-.51.73-1,1.48-1.47,2.21s-.93,1.43-1.41,2.11a6.33,6.33,0,0,1-5,2.73c-.26,0-.55,0-.85,0-1.35,0-3,0-4,1.27a28.46,28.46,0,0,0-1.81,2.61c-1.53,2.38-2.85,4.43-5.88,4.72a7.52,7.52,0,0,1-.89,0c-1.64,0-4.36,0-4.79,2.19a2.26,2.26,0,0,0,.37,1.84,3.26,3.26,0,0,0,2.47,1.11l.38,0c1,.07,1.56.14,1.93.62s.28.76.24.86c-.44,1-3,1.9-4.47,2l-.49,0c-2,.08-4,.27-4.67,1.59a2.21,2.21,0,0,0,.22,2.3c.73,1.22,2.12,1.31,3.23,1.38,1.63.11,1.78.27,1.82,1s-1.28,1.65-2.61,2.06a10.78,10.78,0,0,1-2.49.33l-.44,0c-.51,0-1.07.06-1.63.06-2.11,0-2.9-.44-3.19-.82a1.75,1.75,0,0,1-.11-1.54c.06-.22.19-.55.33-.91.56-1.41,1.61-4-.6-5.09a6.58,6.58,0,0,0-2-.44c-.69-.07-1.72-.19-1.94-.51a1.06,1.06,0,0,1,0-.76c.46-1.81,3.76-2,5.35-2.16l.64,0a9.07,9.07,0,0,0,1.53-.14,2.53,2.53,0,0,0,2.12-2.43,2.46,2.46,0,0,0-2.07-2.41,6.74,6.74,0,0,0-1.22-.11,4.13,4.13,0,0,1-.9-.08,1.63,1.63,0,0,1-1.06-.72,2,2,0,0,1-.17-1.51,7,7,0,0,1,.39-1c.5-1.15,1.13-2.58.51-3.86a2.56,2.56,0,0,0-1.88-1.36,6.11,6.11,0,0,0-1.24-.12,4,4,0,0,1-.88-.07,1.64,1.64,0,0,1-1.06-.72,2,2,0,0,1-.17-1.52,6.16,6.16,0,0,1,.4-1c.49-1.15,1.12-2.57.5-3.85a2.49,2.49,0,0,0-1.81-1.36,6.45,6.45,0,0,0-1.2-.11,6.3,6.3,0,0,1-.65,0,2.08,2.08,0,0,1-1.4-.75,1.51,1.51,0,0,1-.27-1.18,6.89,6.89,0,0,1,.5-1.37c.49-1.1,1.09-2.47.54-3.76a2.51,2.51,0,0,0-1.85-1.45,6.42,6.42,0,0,0-1.19-.11,6.5,6.5,0,0,1-.66,0,2.11,2.11,0,0,1-1.4-.76,1.48,1.48,0,0,1-.27-1.17,7,7,0,0,1,.46-1.31c.55-1.35,1.31-3.19.15-4.49A2.26,2.26,0,0,0,574.66,0c-1.64,0-2.8,2-3.57,3.24-.12.2-.22.38-.31.51l-.4.61c-1,1.47-1.87,2.86-3.39,3.57a5.4,5.4,0,0,1-2.21.49,2.26,2.26,0,0,1-1.78-.6,1.77,1.77,0,0,1-.12-1.55,8.61,8.61,0,0,1,.32-.88c.49-1.26,1.11-2.83.51-4.07A2.23,2.23,0,0,0,562.28.18a2.05,2.05,0,0,0-.65-.1C559.89.08,558.77,2,558,3.45c-.15.27-.29.5-.4.67l-.21.32c-1.07,1.6-2,3-3.67,3.66a5.09,5.09,0,0,1-1.84.35A2.29,2.29,0,0,1,550,7.82a1.82,1.82,0,0,1-.11-1.58,7.45,7.45,0,0,1,.27-.77c.51-1.35,1.21-3.21.39-4.44a2.25,2.25,0,0,0-1.9-1h-.08c-1.75,0-2.89,2-3.73,3.51-.17.31-.33.59-.45.77-1.16,1.74-2.16,3.25-4,3.87a9.8,9.8,0,0,1-2.7.33,16,16,0,0,0-2.35.2,4,4,0,0,0-2.62,2.3c-.12.2-.23.4-.36.59l-.7,1.09a12.55,12.55,0,0,1-2.45,3.16c-1.44,1.16-3.15,1.27-5.12,1.4l-.64,0a3.46,3.46,0,0,0-3.29,1.78c-.31.46-.61.93-.92,1.4-.59.9-1.2,1.84-1.83,2.72-1.18,1.68-2.79,2.47-5.39,2.65-.25,0-.51,0-.76,0-1.26,0-2.83.08-3.85,1.5-.56.79-1.09,1.6-1.6,2.39s-.85,1.31-1.29,1.95a6.33,6.33,0,0,1-5.05,2.77l-.49,0c-2,.07-4,.26-4.67,1.58a2.23,2.23,0,0,0,.22,2.31c.74,1.23,2.12,1.31,3.24,1.38,1.55.09,1.77.22,1.82,1,.1,1.88-3.91,2.31-5.14,2.4-.24,0-.48,0-.72,0a10.68,10.68,0,0,0-1.67.15,2.66,2.66,0,0,0-2.19,2.36,2.3,2.3,0,0,0,1.62,2.37,4.77,4.77,0,0,0,1.63.22,5,5,0,0,1,.71,0,1.91,1.91,0,0,1,1.38.88.73.73,0,0,1-.1.74c-1,1.6-3.45,1.77-5.42,1.9l-.37,0-.43,0a4.25,4.25,0,0,0-2.28.49,2.27,2.27,0,0,0-1.08,2.38,2.9,2.9,0,0,0,2.35,2.1c.35.05.69.07,1,.09a3,3,0,0,1,1.44.29,1,1,0,0,1,.54.73,1.66,1.66,0,0,1-.76,1.24c-1.43,1.1-3.21,1.21-5.09,1.32l-.77,0c-.94.07-2.67.19-3,2a2.22,2.22,0,0,0,.37,1.86,3.64,3.64,0,0,0,2.71,1.1,2.77,2.77,0,0,1,2.08.9,2.6,2.6,0,0,1,0,2.15l-.19.54c-.44,1.2-1,2.69-.28,3.86a2.57,2.57,0,0,0,2,1.16c.32,0,.62.06.92.08a3.17,3.17,0,0,1,1.49.29,1,1,0,0,1,.54.74,1.67,1.67,0,0,1-.76,1.24c-1.43,1.1-3.21,1.21-5.09,1.32l-.78,0c-2.06.15-2.84,1.36-3.58,2.54l-.34.52c-.23.34-.45.69-.67,1a12.77,12.77,0,0,1-2.42,3.1c-1.44,1.16-3.17,1.27-5.16,1.4l-.7.05h-.16c-.88.06-2.35.15-2.88,1.71a2.23,2.23,0,0,0,.18,2,3.5,3.5,0,0,0,2.71,1.26h.18c1,.07,1.6.14,2,.64a.71.71,0,0,1,.2.64,3.23,3.23,0,0,1-1.73,1.59,8.8,8.8,0,0,1-3.5.66,18.89,18.89,0,0,0-2.07.18,4.36,4.36,0,0,0-3,2.53l-.38.61c-.21.32-.42.64-.63,1a11.26,11.26,0,0,1-2.64,3.25,6.71,6.71,0,0,1-3.41,1,2,2,0,0,1-1.49-.46,1.63,1.63,0,0,1-.21-1.31,6.41,6.41,0,0,1,.46-1.33c.55-1.34,1.3-3.17.15-4.47a2.29,2.29,0,0,0-1.73-.86c-1.61,0-2.74,1.89-3.49,3.13l-.31.51c-.16.23-.31.47-.47.71A9.26,9.26,0,0,1,446,103.1a5.62,5.62,0,0,1-2.55.63,2.24,2.24,0,0,1-1.75-.58,1.77,1.77,0,0,1-.12-1.55,9.16,9.16,0,0,1,.33-.9c.49-1.25,1.11-2.81.52-4A2.26,2.26,0,0,0,441,95.48a2.16,2.16,0,0,0-.66-.1c-1.74,0-2.85,1.94-3.66,3.35-.15.27-.29.52-.41.69l-.19.29c-1.08,1.62-2,3-3.69,3.69a6.57,6.57,0,0,1-2.19.46,2.17,2.17,0,0,1-.67-.09c-1.14-.35-1.09-1.63-.88-2.33q.06-.19.18-.51c.63-1.8,1.18-3.65.37-4.79a1.93,1.93,0,0,0-1.68-.8,4.17,4.17,0,0,0-.75.08,3.11,3.11,0,0,0-1.9,1.6l-.15.23-.87,1.31-.87,1.3c-1.16,1.75-2.29,3.24-4.25,3.75a6,6,0,0,1-1.5.23,1.89,1.89,0,0,1-1.16-.31,1.57,1.57,0,0,1-.58-1.2,1.92,1.92,0,0,1,.64-1.49,2.79,2.79,0,0,1,1.79-.52l.48,0A3.07,3.07,0,0,0,421,98.46a2.21,2.21,0,0,0-.62-2.36,4.53,4.53,0,0,0-2.83-.95c-.66-.07-1.66-.18-1.86-.47a1.19,1.19,0,0,1,0-.79c.47-1.81,3.63-2,5.51-2.16h.11a5.15,5.15,0,0,1,.56,0,5.64,5.64,0,0,0,1.88-.25,2.31,2.31,0,0,0,1.61-2.38,2.64,2.64,0,0,0-2.16-2.34,6.38,6.38,0,0,0-1.2-.11,3.54,3.54,0,0,1-1.2-.17,1.12,1.12,0,0,1-.74-.81,1.22,1.22,0,0,1,.46-1.07c1.42-1.28,3.3-1.4,5.3-1.53l.6,0,.26,0a3,3,0,0,0,2.79-1.41,2.22,2.22,0,0,0,0-2.12A3.5,3.5,0,0,0,426.85,78l-.41,0c-.93-.08-1.53-.14-1.9-.63a.69.69,0,0,1-.2-.61,2.84,2.84,0,0,1,1.41-1.45,9,9,0,0,1,4.1-.87l1.58-.12a3.06,3.06,0,0,0,2.3-1.24,2.21,2.21,0,0,0,.22-2c-.53-1.65-2.13-1.73-3.08-1.78l-.47,0c-1-.1-1.58-.42-1.72-1-.24-.9,1.31-1.8,2.41-2.18a9.71,9.71,0,0,1,2.74-.36,14.72,14.72,0,0,0,2.35-.2,2.76,2.76,0,0,0,2.18-2.12,2.27,2.27,0,0,0-1.11-2.38,4.06,4.06,0,0,0-2.14-.46,4.72,4.72,0,0,1-.7,0,1.94,1.94,0,0,1-1.34-.78.69.69,0,0,1,0-.66c.35-.93,2.08-1.72,3.47-1.92a6.24,6.24,0,0,1,1,0h1.06a5.59,5.59,0,0,0,3.1-.66,2.27,2.27,0,0,0,1.06-2.37,2.76,2.76,0,0,0-2.15-2.09,9.3,9.3,0,0,0-1.22-.12,2.71,2.71,0,0,1-1.41-.28,1,1,0,0,1-.54-.75,1.27,1.27,0,0,1,.49-1,5.88,5.88,0,0,1,3.48-1.4,7.7,7.7,0,0,1,.9,0c1.63,0,4.35,0,4.77-2.19a2.26,2.26,0,0,0-.36-1.84,3.28,3.28,0,0,0-2.47-1.11l-.4,0c-.95-.07-1.55-.14-1.92-.62s-.28-.76-.23-.86c.43-1,3-1.9,4.47-2l.4,0c2-.1,4.21-.32,4.86-1.73a2.24,2.24,0,0,0-.49-2.39,4,4,0,0,0-3.08-1.16c-1.71-.13-1.84-.29-1.8-1.1.06-1.29,1.88-2.08,5.39-2.33l.63,0a9,9,0,0,0,1.53-.13,2.54,2.54,0,0,0,2.13-2.43,2.47,2.47,0,0,0-2.08-2.41,6.84,6.84,0,0,0-1.23-.11,4.51,4.51,0,0,1-.95-.09,1.44,1.44,0,0,1-1-.87.9.9,0,0,1,.24-.88c1.25-1.46,3.35-1.6,5.37-1.73l.51,0,.37,0a3.39,3.39,0,0,0,2.57-.89,2.51,2.51,0,0,0,.63-1.3,2.31,2.31,0,0,0,2.34,2.07,2.67,2.67,0,0,0,2-.95,10.54,10.54,0,0,0,.92-1.33q.18-.3.36-.57c.23-.35.46-.72.69-1.09a12.58,12.58,0,0,1,2.46-3.16c1.43-1.16,3.14-1.27,5.12-1.4l.62,0,.26,0a2.94,2.94,0,0,0,2.79-1.4,2.2,2.2,0,0,0,0-2.15,3.4,3.4,0,0,0-2.64-1.42l-.4,0a2.72,2.72,0,0,1-1.85-.53c-.44-.44-.62-1-.2-2.29.09-.28.19-.55.3-.83a14.16,14.16,0,0,0,.53-1.67,2.86,2.86,0,0,0-.54-2.4,2.28,2.28,0,0,0-1.77-.89,2.45,2.45,0,0,0-1.57.61,10.86,10.86,0,0,0-2.26,3.08c-.25.45-.49.88-.73,1.23-1.45,2.18-2.85,3.22-4.67,3.48a9.82,9.82,0,0,1-1.33.13,2.07,2.07,0,0,1-.92-.17A1.84,1.84,0,0,1,459,6.13c0-.13.1-.3.17-.51.64-1.79,1.19-3.63.38-4.78a2,2,0,0,0-1.68-.8,3.56,3.56,0,0,0-.76.09c-1.24.26-2.16,1.77-3.32,3.68-.82,1.34-2.18,3.59-3,3.59a.8.8,0,0,1-.43-.25c-.42-.42,0-1.53.39-2.43a9.12,9.12,0,0,0,.48-1.38,3,3,0,0,0-.53-2.45A2.2,2.2,0,0,0,449,0a2.54,2.54,0,0,0-1.14.29A4,4,0,0,0,446.35,2c-.08.13-.15.25-.22.35-.29.43-.57.88-.85,1.32a24,24,0,0,1-2,2.85A6.82,6.82,0,0,1,439,8.6a1.71,1.71,0,0,1-1.54-.73c-.5-.74-.21-1.58.29-2.88a10.56,10.56,0,0,0,.58-1.75,2.84,2.84,0,0,0-.57-2.32,2.31,2.31,0,0,0-1.77-.87,2.47,2.47,0,0,0-1.58.61,5.16,5.16,0,0,0-1.1,1.44l-.26.44c-.28.41-.54.84-.81,1.27a17.26,17.26,0,0,1-2.13,2.95c-1.52,1.57-3.57,1.72-5.75,1.87l-.43,0a4.32,4.32,0,0,0-2.29.5,2.25,2.25,0,0,0-1.06,2.38,2.88,2.88,0,0,0,2.34,2.09,9,9,0,0,0,1,.09,3.38,3.38,0,0,1,1.36.24,1.79,1.79,0,0,1,.7,2.23c0,.13-.1.31-.18.52-.64,1.81-1.2,3.67-.39,4.81a2,2,0,0,0,1.68.81,3.49,3.49,0,0,0,.76-.09A2.71,2.71,0,0,0,429.45,21a1.64,1.64,0,0,0,.14.22,3.7,3.7,0,0,0,2.75,1.11h.07c1,.08,1.58.15,2,.64a.72.72,0,0,1,.2.64,3.31,3.31,0,0,1-1.74,1.6,8.37,8.37,0,0,1-3.4.63,17.64,17.64,0,0,0-2.23.21,2.9,2.9,0,0,0-2.28,1.84,2.26,2.26,0,0,0,.62,2.31,3.51,3.51,0,0,0,2.56.81,5.41,5.41,0,0,1,.63,0,2.1,2.1,0,0,1,1.37.67.75.75,0,0,1,.14.61c-.14.88-1.74,1.73-3.15,2a9.24,9.24,0,0,1-1.88.12,8.61,8.61,0,0,0-3.06.38,2.35,2.35,0,0,0-1.6,2.39,2.62,2.62,0,0,0,2.09,2.33,8.23,8.23,0,0,0,1.26.12,3.27,3.27,0,0,1,1.19.16,1.25,1.25,0,0,1,.77.82.94.94,0,0,1-.25.85,5.57,5.57,0,0,1-3.64,1.6,8.76,8.76,0,0,1-1,0c-1.6,0-3.8,0-4.58,1.58a2.26,2.26,0,0,0,0,2.13,3.11,3.11,0,0,0,2.39,1.42l.63.05c1,.07,1.56.13,1.94.63a.72.72,0,0,1,.2.59,2.44,2.44,0,0,1-1.1,1.28,7.81,7.81,0,0,1-4.06,1c-.61,0-1.27.09-1.93.09-2.16,0-3-.46-3.26-.84a1.78,1.78,0,0,1-.1-1.55c.06-.22.19-.55.33-.9.57-1.4,1.62-4-.61-5.07A4.48,4.48,0,0,0,409,43.3a4.51,4.51,0,0,1-.67,0,2,2,0,0,1-1.33-.71.73.73,0,0,1-.09-.65c.46-1.81,3.77-2,5.36-2.16l.63,0a9,9,0,0,0,1.53-.14,2.44,2.44,0,0,0,.05-4.84,6.74,6.74,0,0,0-1.22-.11,4.13,4.13,0,0,1-.9-.08,1.63,1.63,0,0,1-1.06-.72,2,2,0,0,1-.17-1.51,7,7,0,0,1,.39-1c.51-1.15,1.13-2.58.51-3.86a2.57,2.57,0,0,0-1.87-1.36,6.27,6.27,0,0,0-1.25-.12,4,4,0,0,1-.88-.07,1.62,1.62,0,0,1-1.06-.73,2,2,0,0,1-.17-1.51,6.82,6.82,0,0,1,.39-1c.5-1.18,1.14-2.64.49-3.92a2.55,2.55,0,0,0-1.85-1.32,6.15,6.15,0,0,0-1.17-.11,6.5,6.5,0,0,1-.66,0,1.94,1.94,0,0,1-1.35-.77,1.83,1.83,0,0,1-.19-1.49,6.16,6.16,0,0,1,.4-1c.5-1.15,1.12-2.58.52-3.86a2.6,2.6,0,0,0-1.89-1.38,6,6,0,0,0-1.16-.11,4.5,4.5,0,0,1-.66,0,1.87,1.87,0,0,1-1.35-.77,1.77,1.77,0,0,1-.19-1.48,8,8,0,0,1,.35-1C399,4,400,1.64,398.12.45a2.34,2.34,0,0,0-1.25-.38c-1.7,0-2.81,1.93-3.56,3.21-.13.24-.26.46-.36.62l-.36.54c-.95,1.45-1.85,2.82-3.36,3.52a5.38,5.38,0,0,1-2.18.48,2.27,2.27,0,0,1-1.8-.62,1.74,1.74,0,0,1-.13-1.52,8.31,8.31,0,0,1,.33-.9c.49-1.25,1.11-2.81.52-4A2.29,2.29,0,0,0,384.53.18a2.16,2.16,0,0,0-.66-.1C382.12.08,381,2,380.21,3.43c-.16.28-.29.52-.41.69l-.19.29c-1.08,1.62-2,3-3.69,3.69a5.27,5.27,0,0,1-1.84.35,2.27,2.27,0,0,1-1.82-.64,1.79,1.79,0,0,1-.11-1.57,7.45,7.45,0,0,1,.27-.77c.51-1.36,1.2-3.21.39-4.45a2.28,2.28,0,0,0-1.9-.95h-.08c-1.74,0-2.89,2-3.73,3.53l-.44.75c-1.17,1.74-2.17,3.25-4.06,3.87a9.75,9.75,0,0,1-2.7.33,15.73,15.73,0,0,0-2.34.2,4.24,4.24,0,0,0-2.75,2.47c-.12.22-.25.44-.39.65s-.42.64-.63,1a11.2,11.2,0,0,1-2.65,3.26c-1.38,1-3.08,1.09-4.88,1.2l-.84.05a3.39,3.39,0,0,0-3.16,1.93l-.88,1.34c-.57.87-1.16,1.77-1.76,2.63-1.2,1.68-2.83,2.45-5.64,2.65-.23,0-.45,0-.68,0-1.2.05-2.7.1-3.72,1.54-.52.74-1,1.51-1.5,2.25s-.91,1.4-1.38,2.07a6.49,6.49,0,0,1-5.34,2.75l-.32,0c-.57,0-1.35.11-2.19.11-2.43,0-3-.53-3.12-.7a.86.86,0,0,1,0-.76c.59-1.78,3.68-2,5.54-2.13h.66a5.64,5.64,0,0,0,1.88-.25,2.31,2.31,0,0,0,1.61-2.38,2.65,2.65,0,0,0-2.16-2.35,7.33,7.33,0,0,0-1.2-.11,3.46,3.46,0,0,1-1.19-.16c-.33-.14-.72-.38-.77-.78a1.55,1.55,0,0,1,.73-1.3c1.44-1.12,3.22-1.23,5.11-1.34l.77-.05c.74-.06,2.15-.16,2.78-1.32a2.24,2.24,0,0,0,.22.4,2.1,2.1,0,0,0,1.84.86h.33c1.62-.14,2.73-2.13,3.55-3.58.18-.31.34-.6.47-.79,1.29-1.93,2.35-3.34,4.32-3.86a10.23,10.23,0,0,1,2.33-.23,14,14,0,0,0,2.38-.21,2.63,2.63,0,0,0,2.14-2.36,2.29,2.29,0,0,0-1.61-2.37,5,5,0,0,0-1.7-.23,4.11,4.11,0,0,1-.9-.07c-.81-.18-1-.53-1.06-.64-.45-.79.09-2.37.48-3.53l.09-.26,0-.06c.28-.84.86-2.6-.75-3.63a2.38,2.38,0,0,0-1.28-.4A3.12,3.12,0,0,0,338,1.61c-.32.46-.65,1-1,1.5-1.67,2.58-3.55,5.51-6.27,5.51a4.43,4.43,0,0,1-1.07-.14c-.69-.17-.86-.47-.91-.57-.41-.75.11-2.28.48-3.39.08-.22.15-.43.21-.62a3.48,3.48,0,0,0,0-2.62,2.27,2.27,0,0,0-1.4-1.1,2.37,2.37,0,0,0-.73-.12,3,3,0,0,0-2.43,1.72c-.31.46-.62.93-.92,1.4-.59.9-1.2,1.84-1.83,2.73a6.47,6.47,0,0,1-4.63,2.7,2.65,2.65,0,0,1-1.07-.21c-1.16-.49-1.07-1.41-.24-3.75.12-.33.23-.66.32-1a3.19,3.19,0,0,0-.27-2.7,2.22,2.22,0,0,0-1.81-.92h-.11a2.89,2.89,0,0,0-2.42,1.68l-.13.2-.88,1.34c-.57.87-1.16,1.78-1.77,2.63-1.19,1.68-2.83,2.45-5.63,2.65l-.71,0a9.68,9.68,0,0,0-1.68.14A2.65,2.65,0,0,0,299,11.1a2.29,2.29,0,0,0,1.6,2.39,5,5,0,0,0,1.62.22,4.72,4.72,0,0,1,.68,0,1.9,1.9,0,0,1,1.35.77,1.79,1.79,0,0,1,.19,1.49,8,8,0,0,1-.35,1c-.56,1.41-1.51,3.77.33,4.94a2.28,2.28,0,0,0,1.24.38A3.11,3.11,0,0,0,307.88,21a3.56,3.56,0,0,0,2.57,1.31l.4,0c1,.08,1.52.14,1.92.63a.7.7,0,0,1,.21.62,3.28,3.28,0,0,1-1.74,1.61,8.67,8.67,0,0,1-3.48.66,19.06,19.06,0,0,0-2.08.18,3,3,0,0,0-2.26,1.54,2.26,2.26,0,0,0,.17,2.17A3.21,3.21,0,0,0,306.48,31a5.41,5.41,0,0,1,.59,0c.07,0,1.69.23,1.6,1.23s-1.73,1.78-3.16,2.08a9.44,9.44,0,0,1-1.9.12,8.61,8.61,0,0,0-3.06.38,2.32,2.32,0,0,0-1.62,2.38A2.65,2.65,0,0,0,301,39.59a8.34,8.34,0,0,0,1.26.12,3.24,3.24,0,0,1,1.19.16,1.16,1.16,0,0,1,.78.8,1.18,1.18,0,0,1-.47,1,5.94,5.94,0,0,1-3.5,1.43c-.22,0-.56,0-.92,0-1.62,0-4.34,0-4.76,2.2a2.27,2.27,0,0,0,.37,1.84,3.3,3.3,0,0,0,2.47,1.11l.35,0c1.07.09,1.69.16,2.05.74s.19.72.13.83c-.5,1-3.14,1.83-4.66,1.94l-.82,0a16.31,16.31,0,0,0-1.83.15,3,3,0,0,0-2.35,1.85,2.24,2.24,0,0,0,.62,2.31,3.49,3.49,0,0,0,2.53.81c.22,0,.43,0,.6,0a2.23,2.23,0,0,1,1.5.79.64.64,0,0,1,.05.62c-.59,1.77-3.67,2-5.51,2.12H290a5,5,0,0,1-.56,0,5.55,5.55,0,0,0-1.87.25,2.3,2.3,0,0,0-1.62,2.38,2.64,2.64,0,0,0,2.16,2.34,7.73,7.73,0,0,0,1.21.12,3.16,3.16,0,0,1,1.3.22q.63.33.66.75a1.8,1.8,0,0,1-.89,1.38c-1.36,1-2.9,1.08-4.69,1.2l-1.16.09c-1.41.13-3.07.69-2.94,2.64.13,2.12,2.17,2.27,3.14,2.35l.27,0c1.22.11,1.77.36,2,.9a.7.7,0,0,1,0,.6,4.41,4.41,0,0,1-2.35,1.64,14.22,14.22,0,0,1-4.16.62c-1.79,0-3.1-.37-3.59-1-.1-.13-.41-.53-.14-1.51a7.88,7.88,0,0,1,.42-1.11,6.55,6.55,0,0,0,.7-2.75c-.11-2.06-2.12-2.34-3.45-2.52a3.84,3.84,0,0,1-1.66-.43c-.73-.72-.51-1.58.12-3.26a12.47,12.47,0,0,0,.51-1.53,2.74,2.74,0,0,0,.06-1.47c-.48-1.73-2.15-1.89-3.37-2-.72-.07-1.47-.15-1.74-.48-.38-.5-.27-.75-.23-.85.42-1,2.9-1.89,4.29-2l.68,0c1.49,0,3.54-.08,4.43-1.32a2.22,2.22,0,0,0,.24-2.06c-.51-1.61-2-1.71-2.94-1.76l-.33,0c-1.48-.13-1.92-.56-2.12-1.18a3.93,3.93,0,0,1,.48-2.5,9.37,9.37,0,0,0,.6-1.81,2.44,2.44,0,0,0-1.74-3,6.93,6.93,0,0,0-1.66-.24c-.91,0-1.36-.09-1.77-.63-.57-.76-.27-1.63.26-3a10.79,10.79,0,0,0,.56-1.72,2.45,2.45,0,0,0-1.81-3.1,8.44,8.44,0,0,0-1.52-.22c-1.63-.14-1.92-.3-2-1.06-.1-1.87,3.91-2.3,5.14-2.39.23,0,.47,0,.71,0a10.92,10.92,0,0,0,1.68-.15,2.68,2.68,0,0,0,2.18-2.36,2.29,2.29,0,0,0-1.62-2.37,4.46,4.46,0,0,0-1.62-.22,6.36,6.36,0,0,1-.67,0,1.9,1.9,0,0,1-1.35-.77,1.81,1.81,0,0,1-.2-1.48,8.73,8.73,0,0,1,.4-1c.5-1.15,1.12-2.58.52-3.86a2.5,2.5,0,0,0-1.81-1.37c-.41-.09-.84-.14-1.26-.2-1.83-.23-2.29-.42-2.29-1.61a5.21,5.21,0,0,1,.55-1.72,4.71,4.71,0,0,0,.55-3.59,2.79,2.79,0,0,0-2.8-1.62l-.18,0c-1.27-.09-1.9-.26-2.26-1s-.11-1.5.38-2.72a10.21,10.21,0,0,0,.58-1.8A2.64,2.64,0,0,0,259.86,1,2.4,2.4,0,0,0,258,.11a2.6,2.6,0,0,0-2,1,8,8,0,0,0-.83,1.2c-.1.17-.2.34-.31.49l-.76,1.19A13.94,13.94,0,0,1,251.9,7,6.55,6.55,0,0,1,248,8.56a1.6,1.6,0,0,1-1.68-1c-.26-.6-.06-1.19.27-2.11.06-.18.13-.36.19-.55l.06-.17c.36-1.06.9-2.65.13-3.77a2.25,2.25,0,0,0-1.86-.92h-.08c-1.74,0-2.9,2.05-3.74,3.54-.17.29-.32.57-.44.74-1.16,1.74-2.17,3.25-4.06,3.87a6.89,6.89,0,0,1-2,.35,1.9,1.9,0,0,1-.62-.08,1.74,1.74,0,0,1-.89-2.14,8.8,8.8,0,0,1,.34-.92c.56-1.43,1.62-4.09-.61-5.12a2.32,2.32,0,0,0-1-.22c-1.74,0-2.91,2-3.68,3.38-.15.26-.28.49-.39.65l-.21.31c-1.07,1.61-2,3-3.67,3.67a5,5,0,0,1-1.82.36,2.12,2.12,0,0,1-1.74-.66,2.32,2.32,0,0,1-.06-2c.06-.21.16-.45.26-.7.48-1.17,1.2-2.93.08-4.2a2.23,2.23,0,0,0-1.71-.82,3,3,0,0,0-2.36,1.4c-.54.76-1.05,1.55-1.54,2.31s-.88,1.36-1.34,2a6.15,6.15,0,0,1-4.82,2.75l-.46,0a1.58,1.58,0,0,1-1.09-.61,1.55,1.55,0,0,1-.34-1.16,7,7,0,0,1,.54-1.65,9.52,9.52,0,0,0,.64-1.91A2.72,2.72,0,0,0,207.86,1a2.36,2.36,0,0,0-1.8-.86,2.6,2.6,0,0,0-2,1,8.58,8.58,0,0,0-.83,1.2c-.1.17-.2.34-.31.49-.26.39-.51.79-.76,1.2A14.11,14.11,0,0,1,199.92,7c-1.48,1.35-3.31,1.48-5.43,1.63l-.32,0-.36,0a3.39,3.39,0,0,0-2.58.89,2.25,2.25,0,0,0-.52,2.34,3,3,0,0,0,2.51,1.74c.22,0,.45,0,.67,0a3.15,3.15,0,0,1,1.65.39c.23.17.94.68.45,2.25q-.15.47-.33.93c-.18.52-.38,1-.52,1.61a3.18,3.18,0,0,0,.51,2.61,2.1,2.1,0,0,0,1.68.84,2.65,2.65,0,0,0,1.16-.29,3.72,3.72,0,0,0,1.4-1.51c.06-.11.13-.21.19-.3l1.13-1.69.62-.94c1.3-1.95,2.5-3.24,4.46-3.62a5.41,5.41,0,0,1,1.16-.14,1.83,1.83,0,0,1,1.25.38,1.78,1.78,0,0,1,0,2.43c-.42.49-.84.54-1.65.58a5,5,0,0,0-2,.38,2.74,2.74,0,0,0-.93.71,15,15,0,0,0-1.77,2.54c-.24.41-.47.79-.71,1.14-1.37,2.07-2.56,3.34-4.52,3.73a9.63,9.63,0,0,1-1.84.11,8.58,8.58,0,0,0-3.06.37,2.36,2.36,0,0,0-1.61,2.4,2.63,2.63,0,0,0,2.09,2.32A6.47,6.47,0,0,0,194,31a3.52,3.52,0,0,1,1.19.17A1.23,1.23,0,0,1,196,32a.93.93,0,0,1-.25.84,5.63,5.63,0,0,1-3.64,1.61,6.35,6.35,0,0,1-.68,0h-.93a4.79,4.79,0,0,0-3.56,1,11.12,11.12,0,0,0-1.6,2.28c-.2.33-.39.66-.59,1l-.2.3c-1.07,1.62-2,3-3.68,3.67a8.85,8.85,0,0,1-3,.44,15.49,15.49,0,0,0-2.31.21,2.87,2.87,0,0,0-2.22,1.84,2.28,2.28,0,0,0,.63,2.31,3.55,3.55,0,0,0,2.58.81,4.38,4.38,0,0,1,.67,0,2,2,0,0,1,1.31.67.78.78,0,0,1,.14.6c-.14.86-1.74,1.74-3.15,2a12.18,12.18,0,0,1-2.06.17,13.1,13.1,0,0,0-2.39.21c-1.49.3-2.23,1.59-2.82,2.63-.14.25-.27.49-.42.71s-.37.56-.55.85a10,10,0,0,1-2.86,3.34,9.58,9.58,0,0,1-4.6,1l-1.05.06a3.32,3.32,0,0,0-3,1.94l-.11.16-.87,1.35a30.91,30.91,0,0,1-2,2.87c-.59.73-1.09,1-1.34,1,0,0-.17,0-.37-.2s-.24-.42,0-1.31a7.18,7.18,0,0,1,.28-.69c.47-1.1,1.11-2.62.35-3.89a2.83,2.83,0,0,0-2.48-1.22h-.07l-.29,0c-1-.07-1.62-.14-2-.63a.71.71,0,0,1-.2-.62A2.81,2.81,0,0,1,148.21,58a9.09,9.09,0,0,1,4.1-.87c.51,0,1-.06,1.57-.12a3.07,3.07,0,0,0,2.31-1.24,2.23,2.23,0,0,0,.22-2c-.53-1.65-2.12-1.73-3.07-1.78l-.43,0c-1.39-.13-1.74-.69-1.9-1.17a3.12,3.12,0,0,1,.29-1.92l.15-.42a5.4,5.4,0,0,1,.21-.54,5.13,5.13,0,0,0,.52-2.31c-.2-2.06-2.27-2.21-3.26-2.28l-.36,0c-1.41-.13-1.76-.72-1.9-1.22a3.19,3.19,0,0,1,.31-1.86l.15-.42c0-.17.13-.35.2-.54a4.88,4.88,0,0,0,.52-2.31c-.19-2-2.26-2.21-3.15-2.28-1.07-.08-1.73-.17-2.07-.69a.72.72,0,0,1-.14-.64,3.31,3.31,0,0,1,1.74-1.56,8.68,8.68,0,0,1,3.43-.63,19.27,19.27,0,0,0,2.1-.19A2.94,2.94,0,0,0,152,29.4a2.24,2.24,0,0,0-.17-2.16A3.16,3.16,0,0,0,149,26l-.57,0a1.79,1.79,0,0,1-1.79-1.57,5,5,0,0,1,.43-1.71q.12-.3.21-.6l.16-.42a3.23,3.23,0,0,0-.05-3.3,2.33,2.33,0,0,0-1.21-.8l-.18-.07-.24-.12a3,3,0,0,1,.18-.35,6.36,6.36,0,0,1,5.15-3.17l.66,0c1.5,0,3.56-.07,4.45-1.32a2.25,2.25,0,0,0,.25-2.06c-.51-1.6-2-1.7-3-1.76l-.31,0c-1.49-.13-1.93-.57-2.13-1.19a3.44,3.44,0,0,1,.46-2.32,6.72,6.72,0,0,0,.7-2.5,2.4,2.4,0,0,0-.66-1.81A2.34,2.34,0,0,0,149.8.13a2.63,2.63,0,0,0-2,1,8.8,8.8,0,0,0-.92,1.33L146.5,3c-.24.35-.47.72-.7,1.09a12.53,12.53,0,0,1-2.46,3.16,6.5,6.5,0,0,1-3.61,1.31c-1.25,0-1.59-.6-1.74-1.13a4.67,4.67,0,0,1,.5-2.48c.13-.33.25-.65.34-.95l0-.12a2.85,2.85,0,0,0-.29-2.95,2.39,2.39,0,0,0-1.82-.83,2.57,2.57,0,0,0-1.61.57,10.87,10.87,0,0,0-2.25,3.09c-.26.45-.5.87-.73,1.23-1.46,2.19-2.86,3.23-4.68,3.48a6.44,6.44,0,0,1-.81.06A1.57,1.57,0,0,1,125.28,8c-.52-.66-.34-1.29,0-2.45l.08-.23c0-.16.12-.33.19-.52.43-1.11,1.23-3.17-.53-4.3a2.31,2.31,0,0,0-1.28-.41,3,3,0,0,0-2.37,1.56c-.5.71-1,1.44-1.43,2.14s-.92,1.43-1.41,2.12a6.32,6.32,0,0,1-5.18,2.67l-.83,0c-.59,0-1.21.06-1.82.15a3,3,0,0,0-2.36,1.85,2.24,2.24,0,0,0,.63,2.31,3.45,3.45,0,0,0,2.54.81,5.19,5.19,0,0,1,.61,0,1.75,1.75,0,0,1,1.74,1.69,9.24,9.24,0,0,1-1.41,3.63l-.21.39c-.5.92-1.07,1.78-1.68,2.7l-.13.19c-.1.14-.19.28-.28.43a6.18,6.18,0,0,1-1.4,1.7,1,1,0,0,1-.51.15.59.59,0,0,1-.65-.57,4.34,4.34,0,0,1,.53-1.83,8.51,8.51,0,0,0,.6-1.74,2.45,2.45,0,0,0-2-3.05,6.35,6.35,0,0,0-1.19-.11,6.5,6.5,0,0,1-.66,0,2.07,2.07,0,0,1-1.4-.76,1.48,1.48,0,0,1-.27-1.17,6.85,6.85,0,0,1,.52-1.52,6.6,6.6,0,0,0,.72-2.66,2.5,2.5,0,0,0-.34-1.23,3.11,3.11,0,0,0-2.84-1.28l-.45,0c-1.18-.12-1.84-.61-2-1.46a4.06,4.06,0,0,1,.54-2A5.26,5.26,0,0,0,100.14,2,2.27,2.27,0,0,0,97.87.11a2.83,2.83,0,0,0-2.13,1,14.64,14.64,0,0,0-1,1.44l-.4.63c-.22.32-.43.65-.64,1a11.26,11.26,0,0,1-2.64,3.25,6.59,6.59,0,0,1-3.37,1c-1.53,0-1.75-.76-1.77-1.5a5.32,5.32,0,0,1,.54-1.94,8.84,8.84,0,0,0,.62-1.86A2.68,2.68,0,0,0,86.57,1,2.37,2.37,0,0,0,84.76.12a2.59,2.59,0,0,0-2,1A21.71,21.71,0,0,0,80.8,4c-.28.47-.56.92-.85,1.36a6.36,6.36,0,0,1-4.88,3.17l-.31,0c-1.34,0-1.62-.72-1.71-1a4.41,4.41,0,0,1,.5-2.76c.15-.39.31-.8.43-1.2A3,3,0,0,0,73.52,1,2.19,2.19,0,0,0,71.77,0a2.54,2.54,0,0,0-1.6.63A5.12,5.12,0,0,0,69.08,2.1l-.27.44q-.41.62-.81,1.26a16.93,16.93,0,0,1-2.12,3c-1.53,1.57-3.5,1.71-5.78,1.87H60l-.39,0a3.48,3.48,0,0,0-2.67.9,2.52,2.52,0,0,0-.39.59,2.3,2.3,0,0,0-.35-.59,2.17,2.17,0,0,0-1.72-.85A2.52,2.52,0,0,0,53.34,9a4,4,0,0,0-1.5,1.66l-.22.34c-.29.44-.57.88-.85,1.33a25.71,25.71,0,0,1-2,2.85c-1.45,1.67-3.45,1.94-5.73,2.11h-.55a5.57,5.57,0,0,0-1.88.25A2.31,2.31,0,0,0,39,19.93a2.66,2.66,0,0,0,2.17,2.34,7,7,0,0,0,1.18.1,3.6,3.6,0,0,1,1.21.17,1.13,1.13,0,0,1,.75.81,1.22,1.22,0,0,1-.46,1.07c-1.42,1.28-3.31,1.4-5.31,1.53L38,26l-.27,0a2.93,2.93,0,0,0-2.78,1.41,2.18,2.18,0,0,0,0,2.15A3.42,3.42,0,0,0,37.52,31L38,31a2.65,2.65,0,0,1,1.82.54c.52.51.57,1.13.2,2.28-.06.21-.15.43-.24.67-.45,1.2-1,2.69-.35,3.88a2.56,2.56,0,0,0,1.83,1.21,7.11,7.11,0,0,0,1.17.1,4,4,0,0,1,1.11.14,1.73,1.73,0,0,1,1,2.23,6.85,6.85,0,0,1-.37.94c-.51,1.19-1.15,2.66-.47,4a2.49,2.49,0,0,0,1.54,1.22,8,8,0,0,0,1.72.29c1.24.1,1.68.18,2,1.06A4.94,4.94,0,0,1,48.35,52c-.47,1.33-1,2.7-.24,3.81A3.11,3.11,0,0,0,50.67,57a2.94,2.94,0,0,1,2.24.93,2.26,2.26,0,0,1,0,2c-.08.25-.17.5-.27.74a11.38,11.38,0,0,0-.55,1.77,2.71,2.71,0,0,0,.51,2.26,2.37,2.37,0,0,0,1.82.87,2.6,2.6,0,0,0,2-.95,22.62,22.62,0,0,0,2.08-3C60,59.31,61.13,57.45,64,57.19l.43,0c1,0,1.35.37,1.56.74.38.65.16,1.4-.26,2.55-.08.21-.16.42-.23.63s-.09.25-.14.38A3.89,3.89,0,0,0,65,63.55c.31,2,2.2,2.06,3.22,2.12l.54,0a1.78,1.78,0,0,1,1.78,1.45,4.23,4.23,0,0,1-.39,1.75c-.07.19-.14.37-.2.55a4.51,4.51,0,0,1-.17.46,4.69,4.69,0,0,0-.46,2.25c.28,1.94,2.14,2.08,3,2.15h.09a2.67,2.67,0,0,1,2.06.9,2.54,2.54,0,0,1,0,2.14c0,.17-.12.35-.19.54-.43,1.2-1,2.7-.27,3.87a2.54,2.54,0,0,0,2,1.15c.32,0,.63.06.92.08a3.11,3.11,0,0,1,1.49.3A1,1,0,0,1,79,84a1.67,1.67,0,0,1-.76,1.24c-1.44,1.1-3.22,1.21-5.1,1.33l-.79,0a3.4,3.4,0,0,0-3.16,1.93c-.3.44-.59.89-.89,1.34-.56.87-1.15,1.77-1.75,2.62-1.19,1.67-2.8,2.46-5.4,2.64-.24,0-.5,0-.77,0-1.18,0-2.64,0-3.62,1.2a25.51,25.51,0,0,0-1.93,2.76c-1.6,2.49-2.85,4.46-5.93,4.63h-.17A1.61,1.61,0,0,1,47,102.58a4.43,4.43,0,0,1,.51-2.24,9.55,9.55,0,0,0,.61-1.85,2.72,2.72,0,0,0-.54-2.23,2.36,2.36,0,0,0-1.8-.85,2.55,2.55,0,0,0-2,1A7.73,7.73,0,0,0,43,97.55c-.11.17-.21.34-.32.5-.25.38-.5.79-.75,1.19a14.26,14.26,0,0,1-2.28,3.06,6.74,6.74,0,0,1-3.89,1.56,1.56,1.56,0,0,1-1.68-1,3.69,3.69,0,0,1,.46-2.58,10.49,10.49,0,0,0,.6-1.82A2.61,2.61,0,0,0,35.07,97a2.45,2.45,0,0,0-1.89-1.57,10.83,10.83,0,0,0-1.25-.2c-1.84-.24-2.3-.43-2.3-1.61a5.25,5.25,0,0,1,.55-1.73,4.75,4.75,0,0,0,.55-3.59,2.81,2.81,0,0,0-2.81-1.62l-.19,0c-1.29-.1-1.93-.27-2.28-1s0-1.7.43-2.71a10.42,10.42,0,0,0,.57-1.74,2.51,2.51,0,0,0-.33-2c-.66-.93-1.88-1.08-3-1.21a4.16,4.16,0,0,1-1.62-.39c-.57-.5-.49-.76-.46-.84.3-.94,2.88-2.06,4.2-2.18.19,0,.49,0,.81,0,1.37,0,3.24,0,4.21-1.09a2.19,2.19,0,0,0,.58-1.71c-.13-2.12-2.23-2.28-3.12-2.35-1.23-.1-1.92-.27-2.28-1s-.1-1.5.39-2.72a11.33,11.33,0,0,0,.58-1.79,2.67,2.67,0,0,0-.52-2.23,2.33,2.33,0,0,0-1.81-.86,2.57,2.57,0,0,0-2,1A8.68,8.68,0,0,0,21.28,63c-.11.18-.22.36-.34.53-.24.36-.48.74-.72,1.13a13.66,13.66,0,0,1-2.38,3.12c-1.46,1.26-3.24,1.38-5.29,1.51l-.58,0-.27,0a2.93,2.93,0,0,0-2.78,1.41,2.22,2.22,0,0,0,0,2.12,3.52,3.52,0,0,0,2.66,1.45l.41,0c.94.08,1.53.14,1.9.63a.74.74,0,0,1,.21.61A2.88,2.88,0,0,1,12.66,77a9,9,0,0,1-4.11.87L7,78a3.07,3.07,0,0,0-2.31,1.24,2.24,2.24,0,0,0-.21,2C5,82.87,6.58,83,7.54,83L8,83c1,.1,1.58.42,1.72,1,.26,1-1.46,1.85-2.41,2.18a9.61,9.61,0,0,1-2.74.36,14.72,14.72,0,0,0-2.35.2A2.75,2.75,0,0,0,0,88.84a2.26,2.26,0,0,0,1.12,2.38,4.08,4.08,0,0,0,2.13.46,6.38,6.38,0,0,1,.66,0,2,2,0,0,1,1.36.76,1.48,1.48,0,0,1,.27,1.17,7.82,7.82,0,0,1-.48,1.55c-.09.26-.19.52-.27.76s-.07.19-.1.29A3,3,0,0,0,5,99.44a2.28,2.28,0,0,0,1.72.83A3,3,0,0,0,9,98.86c.55-.77,1.07-1.57,1.57-2.34s.87-1.34,1.32-2l0,0c.37-.54,1-1.44,1.54-1.5h.09a.5.5,0,0,1,.42.19,1,1,0,0,1,.15.82,9.77,9.77,0,0,1-.4,1.19c-.5,1.29-1.06,2.74-.35,3.91a2.75,2.75,0,0,0,2.22,1.19l.64,0a3.18,3.18,0,0,1,1.67.38c.23.17.94.69.45,2.26-.1.29-.22.6-.35.93a8.5,8.5,0,0,0-.67,2.23,2.49,2.49,0,0,0,2.07,2.76,6.08,6.08,0,0,0,1.23.12,4.77,4.77,0,0,1,.79,0,1.79,1.79,0,0,1,1.19.76,1.86,1.86,0,0,1,.18,1.48,8.31,8.31,0,0,1-.33.9c-.5,1.28-1.12,2.86-.52,4.1a2.24,2.24,0,0,0,1.43,1.18,2.38,2.38,0,0,0,.65.1c1.74,0,2.86-2,3.68-3.38.15-.27.28-.5.39-.67l.21-.31c1.06-1.61,2-3,3.67-3.66a6.12,6.12,0,0,1,2.14-.46,2.88,2.88,0,0,1,.63.07,1.3,1.3,0,0,1,.86.6,2.74,2.74,0,0,1,0,2c-.07.19-.17.45-.28.72-.47,1.14-1.11,2.7-.31,3.94a2.25,2.25,0,0,0,1.91,1.1,3,3,0,0,0,2.28-1.23c.57-.74,1.09-1.54,1.59-2.32,1.69-2.62,3.15-4.88,6.3-4.88a1.87,1.87,0,0,1,1.44.6,1.46,1.46,0,0,1,.33,1.21,6.39,6.39,0,0,1-.52,1.47,5.58,5.58,0,0,0-.68,3.21A2.27,2.27,0,0,0,50,117.54a2.83,2.83,0,0,0,2.13-1,13.19,13.19,0,0,0,1-1.44c.13-.22.26-.43.4-.64l.63-1a11.46,11.46,0,0,1,2.65-3.25c1.38-1,3.08-1.09,4.87-1.2l.84,0c2-.14,2.63-1.08,3.4-2.27l.31-.46c.25-.38.5-.78.75-1.19A14.78,14.78,0,0,1,69.23,102c1.49-1.35,3.3-1.48,5.4-1.62l.37,0c2.22-.16,2.76-.61,3.91-2.34l.84-1.32a23.8,23.8,0,0,1,2-2.86c1.45-1.68,3.34-1.93,5.86-2.11l.48,0a4.33,4.33,0,0,0,2.37-.51,2.25,2.25,0,0,0,1-2.37,2.8,2.8,0,0,0-2.24-2.09,9.21,9.21,0,0,0-1.12-.11,3,3,0,0,1-1.42-.28,1,1,0,0,1-.54-.74,1.67,1.67,0,0,1,.76-1.24c1.43-1.09,3.21-1.2,5.09-1.32l.77,0c.86-.06,2.66-.19,3-2a2.28,2.28,0,0,0-.37-1.85A3.67,3.67,0,0,0,92.7,78h-.07c-1-.07-1.58-.14-2-.63a.7.7,0,0,1-.19-.64,3.21,3.21,0,0,1,1.73-1.6,8.82,8.82,0,0,1,3.47-.65,19.06,19.06,0,0,0,2.08-.18A3,3,0,0,0,100,72.73a2.26,2.26,0,0,0-.17-2.17A3.21,3.21,0,0,0,97,69.3a4.8,4.8,0,0,1-.55,0,1.82,1.82,0,0,1-1.79-1.41,4,4,0,0,1,.4-1.8c.07-.19.13-.37.19-.55s.11-.29.17-.44c.35-.94,1.1-2.89-.67-4a4.2,4.2,0,0,0-2.11-.45,5.78,5.78,0,0,1-.63,0,2.11,2.11,0,0,1-1.41-.76,1.52,1.52,0,0,1-.26-1.17,6.16,6.16,0,0,1,.46-1.32c.55-1.34,1.31-3.17.15-4.48A2.29,2.29,0,0,0,89.18,52c-1.61,0-2.74,1.88-3.48,3.13-.12.2-.23.38-.32.51l-.52.85c-.59,1-1.67,2.79-2.5,2.79-.31,0-.51-.08-.56-.17-.27-.42.26-1.87.48-2.5l.19-.52,0-.06c.29-.89.84-2.53-.7-3.57a4.15,4.15,0,0,0-2.36-.56,3,3,0,0,1-1.28-.19c-1.1-.58-1-1.48-.21-3.71.12-.35.24-.68.34-1A3.11,3.11,0,0,0,78,44.26a2.16,2.16,0,0,0-1.8-.86h-.27a3,3,0,0,0-2.21,1.64l-.14.22c-.3.45-.59.91-.89,1.37-.6.92-1.21,1.87-1.86,2.75A6.89,6.89,0,0,1,66.16,52a1.93,1.93,0,0,1-1.37-.49c-.76-.69-.54-1.55.09-3.23a11,11,0,0,0,.52-1.6,2.71,2.71,0,0,0-.27-2.13,2.55,2.55,0,0,0-1.73-1.09,7.37,7.37,0,0,0-1.2-.1,4.86,4.86,0,0,1-.9-.08,1.64,1.64,0,0,1-1.06-.73A2,2,0,0,1,60.07,41a6.93,6.93,0,0,1,.39-1c.5-1.15,1.13-2.58.51-3.87a2.53,2.53,0,0,0-1.89-1.36,6.55,6.55,0,0,0-1.21-.11,4.13,4.13,0,0,1-.9-.08,1.52,1.52,0,0,1-1.06-.72,2.32,2.32,0,0,1,0-1.86,27.81,27.81,0,0,1,3.63-6.65,6.28,6.28,0,0,1,5.09-2.83l.49,0c2-.08,4-.26,4.67-1.58a2.23,2.23,0,0,0-.22-2.31A2.94,2.94,0,0,0,68,17.44l-.25-.1a.2.2,0,0,1,0-.08,6.56,6.56,0,0,1,2-2.34,6.6,6.6,0,0,1,3.38-1.05c1.54,0,1.76.76,1.77,1.5a5.47,5.47,0,0,1-.56,2,10.45,10.45,0,0,0-.6,1.79,2.58,2.58,0,0,0,.49,2.21,2.34,2.34,0,0,0,1.84.87,2.57,2.57,0,0,0,2-.95,23,23,0,0,0,2-2.91c1.51-2.38,2.71-4.27,5.67-4.51h.32c1.19,0,1.54.56,1.71,1a3.91,3.91,0,0,1-.43,2.47c-.1.26-.19.51-.27.76l-.09.25a2.91,2.91,0,0,0,.31,3.23,3.42,3.42,0,0,0,2.54.82,4.93,4.93,0,0,1,.57,0A1.77,1.77,0,0,1,92.23,24a4.57,4.57,0,0,1-.43,1.7c-.07.21-.15.41-.21.61l-.16.42A4.24,4.24,0,0,0,91,28.84c.27,2,2.25,2.12,3.21,2.18.13,0,.26,0,.38,0,1.38.13,1.74.69,1.9,1.16a3.13,3.13,0,0,1-.3,1.92l-.14.42,0,.11c-.42,1.28-.91,2.72-.17,3.83a2.89,2.89,0,0,0,2.35,1.16l.36,0a2.77,2.77,0,0,1,1.86.54c.44.43.63,1,.21,2.29-.09.28-.2.56-.3.84A15.93,15.93,0,0,0,99.79,45a3,3,0,0,0,.52,2.45,2.18,2.18,0,0,0,1.72.86,2.61,2.61,0,0,0,1.19-.31,3.89,3.89,0,0,0,1.37-1.5l.18-.29,1.76-2.63c1.3-1.95,2.49-3.24,4.45-3.62a9.79,9.79,0,0,1,1.85-.11,8.85,8.85,0,0,0,3.06-.38,2.31,2.31,0,0,0,1.61-2.38,2.64,2.64,0,0,0-2.1-2.34,7.33,7.33,0,0,0-1.27-.12,3.3,3.3,0,0,1-1.19-.16,1.27,1.27,0,0,1-.77-.82,1,1,0,0,1,.25-.85,5.63,5.63,0,0,1,3.64-1.61c.22,0,.53,0,.88,0h.21c1.46,0,3.66,0,4.45-1.58a2.23,2.23,0,0,0,0-2.14A3.09,3.09,0,0,0,119.25,26l-.64-.05a2.68,2.68,0,0,1-1.86-.54c-1.47-1.45.89-5,2-6.73l.23-.35.1-.16c1.21-1.84,2.25-3.43,4.2-4.07a6.4,6.4,0,0,1,1.84-.33,2.23,2.23,0,0,1,.9.16c.3.15,1.22.6.55,2.58-.06.2-.16.43-.26.67-.44,1-1,2.45-.47,3.67s2.07,1.48,3.22,1.59a3.25,3.25,0,0,1,1.61.38c.78.72.56,1.62-.09,3.35-.17.46-.35.93-.47,1.39l0,.08a2.61,2.61,0,0,0-.06,1.47c.49,1.8,2.27,1.85,3.33,1.89a4.4,4.4,0,0,1,.9.08,1.52,1.52,0,0,1,1,.83.74.74,0,0,1-.08.74c-.63,1-2.35,1.64-3.77,1.79-.21,0-.5,0-.79,0h-.53c-1.49,0-3,.08-3.88,1a2.25,2.25,0,0,0-.52,2.3A2.89,2.89,0,0,0,128,39.61a9.25,9.25,0,0,0,1,.1,2.61,2.61,0,0,1,1.59.39c.88.69.66,1.6,0,3.38-.17.46-.34.93-.46,1.39a2.6,2.6,0,0,0,.85,3,3.86,3.86,0,0,0,2.19.53,5.17,5.17,0,0,1,.57,0,1.78,1.78,0,0,1,1.78,1.45,4.13,4.13,0,0,1-.4,1.75l-.19.55-.17.45c-.34.88-.87,2.22,0,3.38a2.75,2.75,0,0,0,2.25,1h.15l.27,0c1,.07,1.65.15,2,.64a.71.71,0,0,1,.2.62,2.82,2.82,0,0,1-1.42,1.44,9,9,0,0,1-4.1.88c-.51,0-1,.06-1.57.12a3.09,3.09,0,0,0-2.3,1.23,2.23,2.23,0,0,0-.22,2c.52,1.64,2.11,1.72,3.06,1.77l.44,0a2.47,2.47,0,0,1,1.75.65c.35.53-.05,1.74-.41,2.81-.46,1.38-.94,2.81-.26,3.93a2.69,2.69,0,0,0,2,1.18,8.94,8.94,0,0,0,1,.08,3.11,3.11,0,0,1,1.44.29,1,1,0,0,1,.53.74,1.64,1.64,0,0,1-.75,1.24c-1.43,1.09-3.21,1.2-5.1,1.32L133,78c-.86.06-2.67.19-3,2a2.2,2.2,0,0,0,.37,1.85A3.65,3.65,0,0,0,133.14,83h.07c1,.07,1.58.14,2,.63a.72.72,0,0,1,.19.65,3.23,3.23,0,0,1-1.73,1.59,8.86,8.86,0,0,1-3.52.66c-.66,0-1.34.07-2,.17a2.94,2.94,0,0,0-2.26,1.53,2.28,2.28,0,0,0,.17,2.18,3.16,3.16,0,0,0,2.89,1.26,5.3,5.3,0,0,1,.59,0c.36,0,1.53.26,1.58,1.1s-1.42,1.74-2.79,2.12a9.77,9.77,0,0,1-2.4.25,14.9,14.9,0,0,0-2.37.21,2.7,2.7,0,0,0-1.94,1.53,2.76,2.76,0,0,0-.36-.65,2.23,2.23,0,0,0-1.77-.93,2.48,2.48,0,0,0-1.59.62,5,5,0,0,0-1.09,1.44c-.1.15-.18.3-.27.44-.27.41-.54.83-.81,1.27a17.62,17.62,0,0,1-2.12,3c-1.53,1.57-3.48,1.71-5.75,1.87l-.44,0a4.09,4.09,0,0,0-2.27.5,2.24,2.24,0,0,0-1.07,2.38,2.84,2.84,0,0,0,2.33,2.09c.35,0,.68.07,1,.09a3.22,3.22,0,0,1,1.36.24,1.79,1.79,0,0,1,.7,2.23c-.12.4-.26.79-.39,1.18s-.32.91-.46,1.39a3.13,3.13,0,0,0,.4,2.69,2.13,2.13,0,0,0,1.72.86,2.7,2.7,0,0,0,.9-.17,3.47,3.47,0,0,0,1.69-1.62l.18-.29.42-.63,1.27-1.9c1.38-2.07,2.56-3.34,4.52-3.73a6.2,6.2,0,0,1,1.17-.13,1.75,1.75,0,0,1,1.24.38c.71.64.53,1.44,0,3l-.13.39,0,.1c-.34,1-.86,2.57-.1,3.67a2.24,2.24,0,0,0,1.85.92h.12a2.9,2.9,0,0,0,2.42-1.67l.13-.2.88-1.34c.57-.88,1.16-1.78,1.77-2.63.25-.36,1-1.43,1.58-1.43a.61.61,0,0,1,.25.06c.18.08.51.24.26,1.13,0,.15-.11.36-.2.62-.65,1.84-1.16,3.58-.37,4.7a2,2,0,0,0,1.68.8,3.58,3.58,0,0,0,.77-.09c1.48-.32,2.47-2.11,3.28-3.56.19-.34.37-.67.51-.88,1.21-1.81,2.29-3.24,4.25-3.75a6.24,6.24,0,0,1,1.49-.22,2,2,0,0,1,1.07.24c.86.56.79,1.32.18,3.17-.05.14-.11.31-.18.48-.39,1-1.2,3.12.62,4.22a2.32,2.32,0,0,0,1.24.37,3.07,3.07,0,0,0,2.35-1.55c.5-.71,1-1.43,1.42-2.13s.94-1.44,1.42-2.13a6.4,6.4,0,0,1,5.19-2.67l.82-.05a14.4,14.4,0,0,0,1.83-.15,2.94,2.94,0,0,0,2.35-1.84,2.25,2.25,0,0,0-.62-2.32,3.45,3.45,0,0,0-2.52-.8,4.92,4.92,0,0,1-.56,0c-.43,0-1.81-.32-1.81-1.66a5.21,5.21,0,0,1,.54-1.7c.51-1.19,1.09-2.54.46-3.83a2.2,2.2,0,0,0-2-1.47,3.32,3.32,0,0,0-2.4,1.5,2.94,2.94,0,0,0-2.06-1.39,9.22,9.22,0,0,0-1-.09,3,3,0,0,1-1.44-.29.94.94,0,0,1-.53-.73,1.67,1.67,0,0,1,.75-1.24c1.44-1.1,3.21-1.21,5.09-1.32l.77,0c.87-.07,2.67-.2,3-2a2.22,2.22,0,0,0-.38-1.84,3.7,3.7,0,0,0-2.75-1.13h-.07c-1-.08-1.58-.15-1.95-.63a.73.73,0,0,1-.2-.65,3.2,3.2,0,0,1,1.74-1.6,8.6,8.6,0,0,1,3.46-.64c.68,0,1.37-.08,2.09-.19a2.94,2.94,0,0,0,2.25-1.54,2.26,2.26,0,0,0-.17-2.17A3.17,3.17,0,0,0,157.61,78l-.59,0c-.36-.05-1.53-.26-1.58-1.11s1.42-1.74,2.8-2.11a9.87,9.87,0,0,1,2.42-.26,14.74,14.74,0,0,0,2.36-.2c1.64-.32,2.52-1.9,3.22-3.16.18-.33.35-.64.51-.88l.19-.28c1.08-1.62,2-3,3.69-3.69a9.3,9.3,0,0,1,3-.46,17.36,17.36,0,0,0,2.23-.19c1.64-.28,2.44-1.68,3.08-2.8.16-.28.32-.55.47-.78l.46-.71a9.31,9.31,0,0,1,3.1-3.43,9.12,9.12,0,0,1,3.95-.79c.52,0,1.05-.06,1.59-.12a3.06,3.06,0,0,0,2.3-1.24,2.21,2.21,0,0,0,.22-2C190.54,52.11,188.93,52,188,52c-.16,0-.32,0-.46,0-.73-.07-1.62-.31-1.73-1-.15-.94,1.47-1.8,2.59-2.15a9.91,9.91,0,0,1,2.6-.31,14.5,14.5,0,0,0,2.34-.2,2.8,2.8,0,0,0,1.51-.74,10.82,10.82,0,0,0,1.66-2.34c.2-.34.39-.67.58-1l.21-.31c1.06-1.61,2-3,3.67-3.66a8.85,8.85,0,0,1,3-.44,15.62,15.62,0,0,0,2.32-.21,2.83,2.83,0,0,0,2.2-1.84,2.25,2.25,0,0,0-.62-2.31,3.55,3.55,0,0,0-2.58-.81,4.16,4.16,0,0,1-.66,0,2,2,0,0,1-1.32-.67.73.73,0,0,1-.14-.6c.13-.85,1.73-1.74,3.14-2a12.64,12.64,0,0,1,2.09-.17,14.5,14.5,0,0,0,2.34-.2c1.69-.33,2.6-2,3.34-3.33.19-.35.37-.68.54-.93,1.16-1.74,2.16-3.25,4.06-3.87a9.61,9.61,0,0,1,2.68-.33,15.85,15.85,0,0,0,2.34-.2c1.53-.29,2.36-1.72,3-2.87.15-.26.29-.5.43-.72l.47-.7a9.21,9.21,0,0,1,3.09-3.43,5.67,5.67,0,0,1,2.54-.62,2.28,2.28,0,0,1,1.78.59,1.74,1.74,0,0,1,.12,1.47,9.87,9.87,0,0,1-.36,1c-.56,1.41-1.51,3.76.34,4.94a2.2,2.2,0,0,0,1.24.38A3.05,3.05,0,0,0,238.56,21a3.63,3.63,0,0,0,2.58,1.31l.42,0c.93.07,1.53.14,1.9.63a.73.73,0,0,1,.2.62,2.85,2.85,0,0,1-1.42,1.44,8.93,8.93,0,0,1-4.1.87c-.51,0-1,.06-1.57.12a3.06,3.06,0,0,0-2.3,1.24,2.21,2.21,0,0,0-.22,2c.52,1.65,2.13,1.73,3.09,1.78l.45,0c1,.1,1.58.42,1.72.95.26,1-1.46,1.85-2.41,2.18a9.27,9.27,0,0,1-2.74.35,16,16,0,0,0-2.35.21,2.76,2.76,0,0,0-2.18,2.12,2.27,2.27,0,0,0,1.12,2.38,4,4,0,0,0,2.14.46,4.81,4.81,0,0,1,.7,0,2,2,0,0,1,1.34.78.75.75,0,0,1,0,.66c-.36.93-2.08,1.72-3.48,1.92a7.56,7.56,0,0,1-.95,0h-1a5.61,5.61,0,0,0-3.12.66,2.28,2.28,0,0,0-1.07,2.37,2.77,2.77,0,0,0,2.16,2.09,9.32,9.32,0,0,0,1.21.12,2.89,2.89,0,0,1,1.42.27,1.07,1.07,0,0,1,.54.76,1.28,1.28,0,0,1-.49,1,5.88,5.88,0,0,1-3.48,1.4c-.22,0-.56,0-.92,0-1.62,0-4.34,0-4.76,2.19a2.26,2.26,0,0,0,.37,1.84A3.26,3.26,0,0,0,223.82,57l.39,0c.95.08,1.55.15,1.92.63s.28.75.24.86c-.43,1-3,1.89-4.47,2l-.49,0c-2,.08-4,.27-4.67,1.59a2.21,2.21,0,0,0,.22,2.3c.73,1.21,2.11,1.31,3.22,1.38,1.64.12,1.79.27,1.83,1,.11,1.88-3.9,2.31-5.14,2.4-.23,0-.47,0-.71,0a10.68,10.68,0,0,0-1.67.15,2.64,2.64,0,0,0-2.18,2.35,2.29,2.29,0,0,0,1.6,2.38,5.07,5.07,0,0,0,1.68.23,4.2,4.2,0,0,1,.83,0,1.64,1.64,0,0,1,1.19.86.87.87,0,0,1-.16.84c-1.09,1.53-3.37,1.68-5.38,1.81l-.58,0h-.36a3.34,3.34,0,0,0-2.57.9A2.23,2.23,0,0,0,208,81.2,3.06,3.06,0,0,0,210.56,83l.67,0a2.81,2.81,0,0,1,1.74.46c.37.34.36.57.35.66a2.24,2.24,0,0,1-1.08,1.38,8.91,8.91,0,0,1-4.57,1.08l-1.22.09c-2.7.24-2.88,1.93-2.83,2.64.13,2.11,2.18,2.27,3.16,2.35l.25,0c1.16.1,1.65.31,1.89.79a.67.67,0,0,1,.06.61,3.76,3.76,0,0,1-2,1.61,8.89,8.89,0,0,1-3,.48,15.62,15.62,0,0,0-2.32.21,3,3,0,0,0-2,1.32,2.26,2.26,0,0,0-.28-.56,1.93,1.93,0,0,0-1.68-.8,4.18,4.18,0,0,0-.76.08A3.08,3.08,0,0,0,195,97l-.15.23L194,98.56l-.87,1.3c-1.17,1.75-2.29,3.24-4.25,3.75a10.85,10.85,0,0,1-2.34.24,13.87,13.87,0,0,0-2.37.2A2.65,2.65,0,0,0,182,106.4a2.35,2.35,0,0,0,1.6,2.39,5.28,5.28,0,0,0,1.71.23,4.16,4.16,0,0,1,.9.06c.82.19,1,.54,1.08.65.43.78-.1,2.33-.48,3.47l-.11.32c-.29.89-.88,2.65.73,3.68a2.29,2.29,0,0,0,1.27.4,3.06,3.06,0,0,0,2.37-1.55c.36-.51.7-1,1.07-1.61,1.71-2.65,3.48-5.4,6.42-5.4a5.16,5.16,0,0,1,.67,0c.77.09.95.39,1,.49.51.8-.13,2.71-.47,3.73l0,.1,0,.15c-.31.91-.89,2.61.73,3.64a2.29,2.29,0,0,0,1.27.4,3.16,3.16,0,0,0,2.38-1.55c.36-.52.7-1,1.07-1.62,1.71-2.64,3.47-5.38,6.45-5.38.2,0,.41,0,.61,0,.77.09,1,.38,1,.48.52.81-.14,2.78-.45,3.72,0,.1-.07.2-.1.3a3.09,3.09,0,0,0,0,2.86,2.25,2.25,0,0,0,1.92,1.12,3,3,0,0,0,2.28-1.24c.59-.77,1.11-1.56,1.62-2.33,1.68-2.57,3-4.6,6.21-4.86l.67,0c1.5,0,3.55-.07,4.44-1.32a2.22,2.22,0,0,0,.24-2.06c-.51-1.61-2-1.71-2.94-1.76l-.32,0c-1.49-.12-1.92-.54-2.13-1.18a3.44,3.44,0,0,1,.46-2.32,6.72,6.72,0,0,0,.7-2.5,2.39,2.39,0,0,0-.66-1.82,2.31,2.31,0,0,0-1.7-.7,2.69,2.69,0,0,0-2,.94l-.21.27-.06-.09c-.73-1.21-2.11-1.3-3.22-1.38-1.64-.11-1.79-.27-1.83-1-.1-1.88,3.91-2.31,5.14-2.4l.71,0a9.82,9.82,0,0,0,1.69-.15,2.64,2.64,0,0,0,2.16-2.35,2.3,2.3,0,0,0-1.6-2.38,4.81,4.81,0,0,0-1.68-.22,5,5,0,0,1-.83-.06,1.62,1.62,0,0,1-1.19-.86.85.85,0,0,1,.16-.83c1.09-1.54,3.37-1.69,5.38-1.82l.58,0,.36,0a3.34,3.34,0,0,0,2.57-.9,2.21,2.21,0,0,0,.51-2.32A3,3,0,0,0,227.54,78l-.66,0a2.72,2.72,0,0,1-1.74-.46c-.38-.33-.37-.57-.36-.66a2.27,2.27,0,0,1,1.08-1.38,8.91,8.91,0,0,1,4.57-1.08l1.22-.09c2.7-.24,2.88-1.92,2.83-2.63-.13-2.13-2.16-2.28-3.14-2.35l-.27,0c-1.14-.1-1.65-.32-1.89-.79a.72.72,0,0,1-.06-.62,3.79,3.79,0,0,1,2-1.6,8.68,8.68,0,0,1,3.05-.49,15.61,15.61,0,0,0,2.31-.21,2.87,2.87,0,0,0,2.22-1.84,2.26,2.26,0,0,0-.63-2.3,3.55,3.55,0,0,0-2.58-.81l-.66,0a2.11,2.11,0,0,1-1.32-.67.8.8,0,0,1-.14-.61c.14-.85,1.74-1.74,3.15-2a11,11,0,0,1,1.88-.12,8.61,8.61,0,0,0,3.06-.37,2.33,2.33,0,0,0,1.62-2.38,2.62,2.62,0,0,0-2.1-2.34,6.47,6.47,0,0,0-1.27-.12,3.81,3.81,0,0,1-1.19-.16,1.27,1.27,0,0,1-.77-.82.94.94,0,0,1,.25-.85,5.63,5.63,0,0,1,3.64-1.61c.22,0,.54,0,.88,0h.22c1.45,0,3.65,0,4.44-1.58a2.23,2.23,0,0,0,0-2.14,3.09,3.09,0,0,0-2.38-1.41l-.64-.06c-1-.06-1.56-.13-1.94-.62s-.27-.75-.23-.85c.42-1,2.91-1.89,4.31-2l.65,0c.83-.07,1.61-.14,2.4-.14a10.09,10.09,0,0,1,1.4.09,1.75,1.75,0,0,1,1.7,1.66,5.43,5.43,0,0,1-.45,1.67c-.08.23-.17.45-.24.67a3.12,3.12,0,0,1-.15.39,4.23,4.23,0,0,0-.4,2.05c.27,1.95,2.21,2.1,3.14,2.17h.1c1.29.1,1.83.33,2.15.94s.14,1.18-.19,2.15l-.06.18c-.07.21-.16.43-.25.66a6.23,6.23,0,0,0-.57,2,2.5,2.5,0,0,0,2.11,2.61A6.37,6.37,0,0,0,259,57a3.88,3.88,0,0,1,.94.08,1.41,1.41,0,0,1,1,.87.9.9,0,0,1-.24.88c-1.24,1.46-3.35,1.6-5.38,1.74l-.5,0-.36,0a3.37,3.37,0,0,0-2.57.89,2.25,2.25,0,0,0-.52,2.34,3,3,0,0,0,2.51,1.74c.22,0,.44,0,.66.06a3.16,3.16,0,0,1,1.66.38c.25.19.93.69.44,2.25-.06.2-.18.47-.3.76-.49,1.13-1.16,2.69-.41,4a2.57,2.57,0,0,0,1.86,1.2,7.43,7.43,0,0,0,1.2.11,3.66,3.66,0,0,1,1.11.14,1.74,1.74,0,0,1,1,2.23c-.06.21-.19.54-.33.88-.56,1.41-1.61,4,.61,5.09a4.17,4.17,0,0,0,1.86.31,6.56,6.56,0,0,1,.68,0,2,2,0,0,1,1.33.71.8.8,0,0,1,.09.65c-.46,1.8-3.77,2-5.36,2.15-.2,0-.42,0-.63,0a9,9,0,0,0-1.53.14,2.44,2.44,0,0,0,0,4.84,6.76,6.76,0,0,0,1.23.11,4.22,4.22,0,0,1,.91.08,1.62,1.62,0,0,1,1,.72,2,2,0,0,1,.17,1.51,8.18,8.18,0,0,1-.37,1c-.54,1.3-1.27,3.07-.24,4.37a3.17,3.17,0,0,0,2.56,1l.42,0c1.58.14,1.92.8,2,1.35a3.64,3.64,0,0,1-.52,2.1,5.56,5.56,0,0,0-.67,3c.28,1.91,2.15,2.07,2.85,2.13l.28,0c1.06.08,1.68.16,2.11.72.57.75.27,1.63-.26,3a11.49,11.49,0,0,0-.55,1.69,2.81,2.81,0,0,0,.54,2.35,2.24,2.24,0,0,0,1.75.86,2.41,2.41,0,0,0,1.17-.31,4.11,4.11,0,0,0,1.46-1.63l.22-.35q.42-.64.84-1.32a24.5,24.5,0,0,1,2-2.85c1.44-1.67,3.44-1.94,5.72-2.11H283a5.6,5.6,0,0,0,1.88-.25,2.33,2.33,0,0,0,1.62-2.38,2.68,2.68,0,0,0-2.17-2.35,8.63,8.63,0,0,0-1.2-.11,3.5,3.5,0,0,1-1.19-.16,1.15,1.15,0,0,1-.76-.81,1.21,1.21,0,0,1,.47-1.07c1.42-1.28,3.31-1.4,5.3-1.53l.6-.05h.26a3,3,0,0,0,2.79-1.41,2.21,2.21,0,0,0,0-2.15,3.45,3.45,0,0,0-2.67-1.42l-.42,0c-.95-.07-1.51-.14-1.89-.62a.76.76,0,0,1-.21-.62,2.81,2.81,0,0,1,1.42-1.44,9,9,0,0,1,4.1-.88c.52,0,1.05-.06,1.58-.12a3.09,3.09,0,0,0,2.3-1.23,2.23,2.23,0,0,0,.22-2c-.52-1.64-2.13-1.72-3.09-1.77l-.45,0c-.69-.07-1.55-.29-1.73-1-.24-.9,1.31-1.8,2.41-2.18a9.73,9.73,0,0,1,2.75-.36,14.86,14.86,0,0,0,2.35-.21,2.74,2.74,0,0,0,2.16-2.11,2.27,2.27,0,0,0-1.1-2.39,4,4,0,0,0-2.14-.45,6.81,6.81,0,0,1-.7,0A1.93,1.93,0,0,1,294.1,77a.7.7,0,0,1,.07-.71c.63-1,2.37-1.67,3.81-1.82.22,0,.51,0,.81,0h.52c1.49,0,3-.08,3.87-1a2.19,2.19,0,0,0,.53-2.28,3.05,3.05,0,0,0-2.38-1.79c-.33-.05-.65-.07-1-.09-.83-.06-1.28-.11-1.68-.52s-.31-.57-.29-.65c.06-.44.61-1,1.4-1.48a9.12,9.12,0,0,1,4.18-.9h.11c.34,0,.84,0,1.37,0,2.2,0,3,.46,3.3.85a1.81,1.81,0,0,1,.05,1.63c-.06.21-.17.49-.29.79-.48,1.22-1.07,2.73-.5,4a2.37,2.37,0,0,0,1.47,1.25,4.63,4.63,0,0,0,1.53.18,6.77,6.77,0,0,1,.69,0,1.87,1.87,0,0,1,1.37.88A.7.7,0,0,1,313,76c-1,1.6-3.44,1.77-5.42,1.9l-.37,0-.44,0a4.17,4.17,0,0,0-2.27.49,2.26,2.26,0,0,0-1.06,2.39,2.82,2.82,0,0,0,2.32,2.09c.35,0,.69.07,1,.09a3.2,3.2,0,0,1,1.35.24,1.79,1.79,0,0,1,.7,2.23,9.46,9.46,0,0,1-.38,1,8.6,8.6,0,0,0-.67,2.25,2.49,2.49,0,0,0,2.08,2.8,7.05,7.05,0,0,0,1.25.11,5.71,5.71,0,0,1,.88.07,1.62,1.62,0,0,1,1.06.73A2,2,0,0,1,313.2,94a10.3,10.3,0,0,1-.45,1.27,8.69,8.69,0,0,0-.64,2.08A2.47,2.47,0,0,0,314,100.2a9.7,9.7,0,0,0,1.48.24c1.57.18,2,.33,2.15,1.33a4.63,4.63,0,0,1-.54,2.23,9.69,9.69,0,0,0-.61,1.84,2.44,2.44,0,0,0,1.5,2.93,5.45,5.45,0,0,0,1.84.29,2.66,2.66,0,0,1,1.39.26c1.05.66.83,1.65.12,3.61-.13.37-.27.76-.38,1.12a3.12,3.12,0,0,0,.39,2.69,2.13,2.13,0,0,0,1.75.86,3.06,3.06,0,0,0,.59-.07,3.25,3.25,0,0,0,2-1.73l.18-.28.87-1.35c.6-.92,1.21-1.88,1.87-2.74A6.77,6.77,0,0,1,333.1,109a1.93,1.93,0,0,1,1.37.47c.75.69.53,1.57-.1,3.27a12.85,12.85,0,0,0-.5,1.52,2.93,2.93,0,0,0,.48,2.45,2.16,2.16,0,0,0,1.75.84,2.46,2.46,0,0,0,.65-.08,3.28,3.28,0,0,0,1.91-1.7l.18-.29c.3-.44.59-.89.88-1.35.59-.92,1.2-1.88,1.86-2.74a6.81,6.81,0,0,1,4.51-2.4,1.94,1.94,0,0,1,1.37.48c.76.69.55,1.55-.08,3.21a12.41,12.41,0,0,0-.52,1.6,2.94,2.94,0,0,0,.53,2.45,2.16,2.16,0,0,0,1.71.84,2.56,2.56,0,0,0,1.15-.28,4.18,4.18,0,0,0,1.51-1.66c.07-.13.14-.24.21-.35.29-.43.57-.87.85-1.32a24.43,24.43,0,0,1,2-2.85c1.45-1.68,3.37-1.94,5.73-2.11h.53a4.68,4.68,0,0,0,2.36-.46,3.45,3.45,0,0,0,1.13-1.28c.06-.08.11-.17.16-.25l.89-1.35c.57-.87,1.15-1.77,1.76-2.62,1.19-1.68,2.83-2.45,5.64-2.65.21,0,.44,0,.69,0a5.55,5.55,0,0,0,2.59-.42,3,3,0,0,0,1.11-1.12l.1-.15,1.19-1.8c.53-.81,1.08-1.65,1.64-2.45a6.46,6.46,0,0,1,5.3-2.68c.26,0,.52,0,.79,0,1.27,0,2.86-.06,3.89-1.43.55-.73,1-1.48,1.52-2.21,1.71-2.63,3.07-4.71,6.32-5l.61-.05c.87-.07,1.69-.14,2.52-.14a12.33,12.33,0,0,1,1.41.08c.36,0,1.53.26,1.58,1.11s-1.6,1.79-2.79,2.12a10.28,10.28,0,0,1-2.4.25,13.82,13.82,0,0,0-2.37.21,2.64,2.64,0,0,0-2.15,2.35,2.3,2.3,0,0,0,1.61,2.38,5,5,0,0,0,1.72.23,4.49,4.49,0,0,1,.95.07,1.59,1.59,0,0,1,1,.83.77.77,0,0,1-.09.74c-.63,1-2.4,1.65-3.78,1.79-.2,0-.48,0-.72,0h-.71c-1.37,0-2.9.09-3.77,1.06a2.94,2.94,0,0,0-.34.47,2.83,2.83,0,0,0-.34-.48,2.25,2.25,0,0,0-1.71-.83,3,3,0,0,0-2.35,1.41c-.54.75-1.05,1.54-1.54,2.3s-.88,1.37-1.35,2a6.24,6.24,0,0,1-5,2.72l-.48,0c-2,.08-4,.27-4.68,1.58a2.23,2.23,0,0,0,.22,2.31A3.11,3.11,0,0,0,376,109c.15,0,.3,0,.44,0,.81.07,1.8.38,2,1.42a4,4,0,0,1-.53,2,5.22,5.22,0,0,0-.65,3.16,2.25,2.25,0,0,0,2.24,1.93,2.87,2.87,0,0,0,2.17-1.05,12,12,0,0,0,1-1.49q.21-.34.42-.66c.2-.3.39-.61.59-.92a10.83,10.83,0,0,1,2.76-3.3,6.11,6.11,0,0,1,3.11-.89,2.12,2.12,0,0,1,1.65.53,2,2,0,0,1,.11,1.57,9.35,9.35,0,0,1-.35,1c-.56,1.4-1.5,3.75.34,4.92a2.28,2.28,0,0,0,1.24.38c1.69,0,2.82-1.94,3.57-3.22.14-.24.26-.45.36-.6l.36-.54a8.86,8.86,0,0,1,3.35-3.53,6,6,0,0,1,2.37-.51,2.17,2.17,0,0,1,1.62.5,1.59,1.59,0,0,1,.23,1.29,7.16,7.16,0,0,1-.47,1.32c-.55,1.34-1.3,3.17-.15,4.48a2.29,2.29,0,0,0,1.73.86c1.61,0,2.74-1.89,3.49-3.14.12-.2.22-.37.31-.5s.32-.48.47-.72a9.34,9.34,0,0,1,3.09-3.42,5.61,5.61,0,0,1,2.54-.63,2.25,2.25,0,0,1,1.76.59,1.75,1.75,0,0,1,.12,1.54,8.31,8.31,0,0,1-.33.9c-.49,1.26-1.11,2.81-.51,4a2.25,2.25,0,0,0,1.43,1.19,2.51,2.51,0,0,0,.66.1c1.75,0,2.85-1.94,3.66-3.36.16-.27.29-.51.41-.69l.19-.29c1.08-1.62,2-3,3.69-3.68a6.33,6.33,0,0,1,2.19-.46,2.56,2.56,0,0,1,.67.08c1.14.35,1.09,1.63.88,2.33l-.17.52c-.64,1.79-1.18,3.64-.37,4.79a1.94,1.94,0,0,0,1.67.8,3.4,3.4,0,0,0,.75-.09c1.48-.32,2.47-2.12,3.28-3.56.19-.34.37-.67.51-.88,1.17-1.75,2.29-3.24,4.25-3.75a6,6,0,0,1,1.5-.22,1.82,1.82,0,0,1,1.16.31c.45.35.79.89.3,2.41-.08.28-.19.56-.29.84a12.37,12.37,0,0,0-.54,1.69,2.81,2.81,0,0,0,.55,2.35,2.28,2.28,0,0,0,1.77.88,2.52,2.52,0,0,0,1.58-.6,4.82,4.82,0,0,0,1.05-1.37,3.18,3.18,0,0,1,.25-.41l.87-1.31.88-1.31c1.48-2.22,3-3.25,5-3.43l.41,0c1.17,0,1.51.5,1.68.93a3.18,3.18,0,0,1-.28,2.08c0,.12-.09.25-.13.38s-.13.36-.21.55a5.74,5.74,0,0,0-.51,1.91,2.43,2.43,0,0,0,.66,1.82,2.35,2.35,0,0,0,1.7.7,2.69,2.69,0,0,0,2.07-1,24,24,0,0,0,2-2.88c.32-.51.62-1,.93-1.46a7.6,7.6,0,0,1,1.48-1.75l.06,0c.4-.32.66-.51.83-.62a3.17,3.17,0,0,1,.18,1.22,7.22,7.22,0,0,1-.48,1.35c-.53,1.25-1.19,2.82-.36,4.11a2.22,2.22,0,0,0,1.9,1.21c1.56,0,2.7-1.84,3.46-3,.09-.15.17-.29.24-.39.19-.28.37-.57.56-.86a10.11,10.11,0,0,1,2.85-3.34,9.33,9.33,0,0,1,4.42-1l1.22-.08c2.7-.24,2.88-1.93,2.84-2.64-.14-2.13-2.16-2.28-3.14-2.35l-.28,0c-1.16-.1-1.65-.31-1.89-.79a.71.71,0,0,1-.06-.61,3.84,3.84,0,0,1,2.05-1.61,8.88,8.88,0,0,1,3.08-.49,16.48,16.48,0,0,0,2.28-.2,2.84,2.84,0,0,0,2.2-1.84,2.24,2.24,0,0,0-.61-2.31,3.51,3.51,0,0,0-2.59-.81l-.66,0a2.07,2.07,0,0,1-1.31-.67.79.79,0,0,1-.14-.6c.14-.88,1.74-1.74,3.15-2a17.94,17.94,0,0,1,3.54-.38c1.75,0,3,.35,3.47,1a2,2,0,0,1,.05,1.76,6.45,6.45,0,0,1-.29.74c-.49,1.15-1.17,2.72-.41,4a2.52,2.52,0,0,0,1.77,1.19,5.61,5.61,0,0,0,1.26.11,4.63,4.63,0,0,1,.88.08,1.64,1.64,0,0,1,1.06.73,2,2,0,0,1,.17,1.51,7.35,7.35,0,0,1-.39,1c-.5,1.16-1.13,2.6-.51,3.87a2.48,2.48,0,0,0,1.55,1.3,6.58,6.58,0,0,0,1.78.27c1.07.06,1.46.12,1.83.84s.11,1.5-.38,2.71a9.45,9.45,0,0,0-.58,1.8,2.7,2.7,0,0,0,.52,2.24,2.36,2.36,0,0,0,1.81.86,2.62,2.62,0,0,0,2-1,9.21,9.21,0,0,0,.83-1.2c.1-.17.2-.34.31-.5.25-.38.5-.78.76-1.19a14.43,14.43,0,0,1,2.28-3.06,6.64,6.64,0,0,1,3.88-1.56,1.56,1.56,0,0,1,1.68,1c.27.69,0,1.37-.43,2.43a7.11,7.11,0,0,0-.7,2.39,2.52,2.52,0,0,0,.65,1.89,2.41,2.41,0,0,0,1.74.73,2.68,2.68,0,0,0,2-.93,9.12,9.12,0,0,0,.82-1.2c.11-.17.21-.34.32-.5.25-.38.5-.78.75-1.19a14.78,14.78,0,0,1,2.28-3.06,6.7,6.7,0,0,1,3.89-1.55,1.57,1.57,0,0,1,1.68,1c.27.69,0,1.37-.44,2.41a7.12,7.12,0,0,0-.7,2.5,2.51,2.51,0,0,0,.66,1.82,2.34,2.34,0,0,0,1.71.71,2.7,2.7,0,0,0,2-1,9.59,9.59,0,0,0,.92-1.33c.12-.19.24-.39.36-.57.23-.35.46-.72.69-1.09a12.81,12.81,0,0,1,2.46-3.16c1.44-1.16,3.14-1.27,5.12-1.4l.63,0c2.14-.16,2.67-.83,3.67-2.34l.2-.3q.39-.6.78-1.23a15.71,15.71,0,0,1,2.21-3c1.51-1.46,3.4-1.59,5.6-1.75l.29,0c2.22-.16,2.76-.61,3.91-2.34.29-.43.56-.88.85-1.32a22.65,22.65,0,0,1,2-2.86c1.44-1.67,3.45-1.94,5.73-2.1l.27,0c1.39-.1,2.71-.19,3.81-1.83l.91-1.39c.59-.9,1.2-1.84,1.83-2.72,1.17-1.65,2.83-2.47,5.39-2.65l.77,0a12.23,12.23,0,0,0,1.79-.15,2.83,2.83,0,0,0,2.27-2.15,2.25,2.25,0,0,0-1.13-2.35,4,4,0,0,0-2.13-.46,6.19,6.19,0,0,1-.67,0,2,2,0,0,1-1.33-.7.8.8,0,0,1-.09-.65c.46-1.81,3.77-2,5.36-2.16.21,0,.42,0,.63,0a9,9,0,0,0,1.53-.13,2.5,2.5,0,0,0,2.13-2.42,2.46,2.46,0,0,0-2.08-2.42,6.11,6.11,0,0,0-1.24-.12,4,4,0,0,1-.95-.08,1.46,1.46,0,0,1-1-.83.81.81,0,0,1,.11-.79c1-1.56,3.34-1.72,5.35-1.86l.39,0,.44,0a4.3,4.3,0,0,0,2.28-.5A2.24,2.24,0,0,0,590,62.81a2.81,2.81,0,0,0-2.33-2.09,7.28,7.28,0,0,0-1-.09,3,3,0,0,1-1.43-.29c-.52-.32-.53-.63-.54-.73a1.66,1.66,0,0,1,.76-1.25,6.34,6.34,0,0,1,3.47-1.2l.86-.08c.8-.07,1.62-.15,2.41-.15a7.69,7.69,0,0,1,1.7.17c.82.19,1,.54,1.08.65.43.78-.1,2.34-.48,3.48l-.11.32,0,.13c-.29.84-.76,2.25.5,3.33a3.6,3.6,0,0,0,2.4.67l.63,0a2.15,2.15,0,0,1,1.37.67.8.8,0,0,1,.14.61c-.14.88-1.74,1.74-3.15,2a10.94,10.94,0,0,1-1.88.12,8.58,8.58,0,0,0-3.06.37,2.32,2.32,0,0,0-1.61,2.39,2.61,2.61,0,0,0,2.09,2.33,7.22,7.22,0,0,0,1.26.12,3.46,3.46,0,0,1,1.19.16,1.26,1.26,0,0,1,.78.82.94.94,0,0,1-.25.85,5.63,5.63,0,0,1-3.64,1.61c-.23,0-.59,0-1,0-1.6,0-3.8,0-4.58,1.58a2.24,2.24,0,0,0,0,2.13A3.06,3.06,0,0,0,587.88,83l.64,0a2.79,2.79,0,0,1,1.86.54c.73.72.51,1.58-.12,3.26a12.47,12.47,0,0,0-.51,1.53,2.74,2.74,0,0,0-.06,1.47c.49,1.77,2.25,1.88,3.41,1.94a4.11,4.11,0,0,1,1.23.18c1.11.59,1,1.51.19,3.8-.12.32-.23.63-.32.92l-.05.14a2.8,2.8,0,0,0-.15,1.58c.41,1.81,2.19,1.91,3.14,2l.41,0c1.4.14,1.75.73,1.9,1.17a3.17,3.17,0,0,1-.3,1.93c0,.13-.09.27-.14.41s-.13.35-.21.54a5,5,0,0,0-.52,2.31,2.49,2.49,0,0,0,2.17,2.19,7.73,7.73,0,0,0,1.2.12,3.47,3.47,0,0,1,1.23.18,1.77,1.77,0,0,1,.82,2.25c0,.15-.14.42-.25.71-.51,1.41-1.22,3.34-.37,4.56a2.13,2.13,0,0,0,1.85.86l.32,0c1.64-.14,2.78-2.17,3.62-3.65.18-.32.35-.63.48-.82,1.21-1.81,2.29-3.24,4.25-3.75a4.6,4.6,0,0,1,1.15-.15,2.19,2.19,0,0,1,1.79.68,2.08,2.08,0,0,1,.08,1.79c-.09.3-.2.61-.31.91a13.18,13.18,0,0,0-.52,1.61,3.19,3.19,0,0,0,.51,2.62,2.11,2.11,0,0,0,1.67.82,2.73,2.73,0,0,0,1.17-.29,3.81,3.81,0,0,0,1.4-1.52l.18-.29.88-1.32.88-1.31c1.3-2,2.5-3.24,4.45-3.63a6.12,6.12,0,0,1,1.17-.13,1.8,1.8,0,0,1,1.24.38c.46.42.66,1,.22,2.33q-.13.42-.3.84a16.14,16.14,0,0,0-.52,1.62,3,3,0,0,0,.52,2.46,2.18,2.18,0,0,0,1.72.86,2.5,2.5,0,0,0,1.19-.32,3.8,3.8,0,0,0,1.37-1.49l.18-.29.88-1.32.88-1.31c1.3-2,2.5-3.24,4.45-3.63a13.05,13.05,0,0,1,2-.16,13.48,13.48,0,0,0,2.35-.2,2.75,2.75,0,0,0,1.52-.77,11.67,11.67,0,0,0,1.72-2.44c.22-.37.43-.73.64-1,1.11-1.68,2.17-3.26,4.06-3.87a9.38,9.38,0,0,1,2.7-.34,15.58,15.58,0,0,0,2.32-.2,2.77,2.77,0,0,0,1.47-.69,9.37,9.37,0,0,0,1.61-2.23c.18-.32.36-.63.53-.89l.36-.54c1-1.45,1.85-2.82,3.36-3.52a8.43,8.43,0,0,1,3.31-.58,18.92,18.92,0,0,0,2.2-.2c1.61-.27,2.41-1.62,3-2.7.14-.23.28-.46.42-.67s.37-.56.55-.85A10.22,10.22,0,0,1,677,84a7.22,7.22,0,0,1,3.39-.9l1-.1c.68-.06,1.39-.13,2.07-.13a4.72,4.72,0,0,1,1.85.29,1.25,1.25,0,0,1,.77.82,1,1,0,0,1-.25.85,5.62,5.62,0,0,1-3.64,1.6c-.23,0-.58,0-1,0-1.6,0-3.79,0-4.58,1.57a2.23,2.23,0,0,0,0,2.13A3,3,0,0,0,679,91.61l.63.06c1,.07,1.55.13,1.94.62s.28.74.23.84c-.41,1-2.89,1.9-4.28,2l-.68,0c-1.5,0-3.54.07-4.43,1.32a1.18,1.18,0,0,0-.14.22,2.41,2.41,0,0,0-.32-.54,2.13,2.13,0,0,0-1.71-.81,3.21,3.21,0,0,0-.6.06,3.31,3.31,0,0,0-2,1.73l-.17.28c-.3.45-.59.9-.88,1.35-.59.93-1.21,1.88-1.87,2.75-1.32,1.72-3.15,2.18-5.67,2.36-.21,0-.42,0-.64,0a9.06,9.06,0,0,0-1.54.13,2.45,2.45,0,0,0,0,4.85,6.58,6.58,0,0,0,1.22.11,4.12,4.12,0,0,1,.89.07,1.62,1.62,0,0,1,1.06.73,1.93,1.93,0,0,1,.18,1.51c-.06.21-.19.54-.33.9-.49,1.27-1.11,2.85-.52,4.08a2.24,2.24,0,0,0,1.43,1.18,2.38,2.38,0,0,0,.65.1c1.74,0,2.91-2,3.68-3.38.15-.26.28-.5.4-.67l.17-.25c1.11-1.68,2.08-3.13,3.87-3.78a5,5,0,0,1,1.69-.3,2.23,2.23,0,0,1,1.77.63,1.89,1.89,0,0,1,.13,1.65c0,.15-.12.37-.21.63-.65,1.84-1.17,3.59-.37,4.71a2,2,0,0,0,1.68.8,3.65,3.65,0,0,0,.77-.09c1.28-.28,2.24-1.87,3.35-3.73.78-1.31,2.1-3.5,2.88-3.5a.87.87,0,0,1,.47.25c.4.38.06,1.32-.38,2.42a9.72,9.72,0,0,0-.47,1.33,2.94,2.94,0,0,0,.49,2.45,2.16,2.16,0,0,0,1.75.84,2.39,2.39,0,0,0,.64-.08,3.34,3.34,0,0,0,1.92-1.7l.18-.29.87-1.35c.6-.92,1.21-1.88,1.87-2.74a6.66,6.66,0,0,1,4.5-2.4,2,2,0,0,1,1.36.46c.78.69.56,1.56-.07,3.24a13.41,13.41,0,0,0-.52,1.59,3,3,0,0,0,.53,2.45,2.19,2.19,0,0,0,1.72.84,2.48,2.48,0,0,0,1.15-.29,4.14,4.14,0,0,0,1.5-1.65l.21-.35c.29-.43.57-.87.85-1.32a24.5,24.5,0,0,1,2-2.85c1.44-1.68,3.36-1.94,5.71-2.11h.56a5.64,5.64,0,0,0,1.88-.25,2.31,2.31,0,0,0,1.61-2.38,2.65,2.65,0,0,0-2.16-2.35,8.23,8.23,0,0,0-1.18-.11,3.46,3.46,0,0,1-1.13-.14,1.73,1.73,0,0,1-1-2.22c.05-.18.16-.47.28-.77.51-1.37,1.22-3.25.39-4.49a2.22,2.22,0,0,0-1.89-.95h-.08a3,3,0,0,0-2.21,1.21c-.66-1.1-2.25-1.23-2.95-1.28-1.13-.09-1.77-.24-2.05-.8a.73.73,0,0,1-.06-.62,3.8,3.8,0,0,1,2-1.61,8.89,8.89,0,0,1,3-.48,15.74,15.74,0,0,0,2.32-.21,2.88,2.88,0,0,0,2.21-1.84,2.27,2.27,0,0,0-.62-2.3,3.47,3.47,0,0,0-2.58-.81l-.67,0a2,2,0,0,1-1.31-.68.73.73,0,0,1-.14-.6c.14-.88,1.74-1.74,3.14-2a11.13,11.13,0,0,1,1.89-.12,8.61,8.61,0,0,0,3.06-.37,2.33,2.33,0,0,0,1.61-2.39,2.63,2.63,0,0,0-2.1-2.33,7.14,7.14,0,0,0-1.26-.12,3.56,3.56,0,0,1-1.2-.16,1.28,1.28,0,0,1-.76-.82,1,1,0,0,1,.25-.86,5.67,5.67,0,0,1,3.64-1.6c.23,0,.59,0,1,0,1.6,0,3.78,0,4.57-1.58a2.28,2.28,0,0,0,0-2.14,3.11,3.11,0,0,0-2.39-1.41l-.64,0c-.95-.07-1.55-.14-1.93-.63a.76.76,0,0,1-.21-.6,2.4,2.4,0,0,1,1.11-1.27,7.89,7.89,0,0,1,4.06-1c.64,0,1.27-.08,1.93-.08,2.16,0,3,.45,3.26.83a1.8,1.8,0,0,1,.1,1.56,10.92,10.92,0,0,1-.43,1.19,8.77,8.77,0,0,0-.65,2.11,2.47,2.47,0,0,0,1.8,2.82,7.37,7.37,0,0,0,1.62.24c1.42.11,1.8.23,1.94.94a1,1,0,0,1-.18.85c-.68.91-2.89,1.51-4.71,1.64l-.77,0a12.23,12.23,0,0,0-1.79.15,2.84,2.84,0,0,0-2.26,2.16,2.26,2.26,0,0,0,1.12,2.35,4,4,0,0,0,2.11.45,5.76,5.76,0,0,1,.64,0,2.09,2.09,0,0,1,1.41.76,1.52,1.52,0,0,1,.26,1.17,6.23,6.23,0,0,1-.49,1.34c-.5,1.14-1.12,2.56-.51,3.87a2.54,2.54,0,0,0,1.48,1.29,6.09,6.09,0,0,0,1.84.29c.89,0,1.3.07,1.71.61.57.76.27,1.64-.26,3a11.39,11.39,0,0,0-.56,1.71,2.71,2.71,0,0,0,0,1.45c.53,1.68,2.18,1.74,3.17,1.78a6,6,0,0,1,.67,0c1,.15,1.21.52,1.28.64.51.83-.09,2.64-.42,3.61,0,.1-.07.21-.11.32a3.56,3.56,0,0,0-.34,1.91c.31,1.91,2.12,2,3.09,2.12l.26,0c1.2.1,1.71.34,2,.94s.14,1.17-.19,2.13l-.06.19c-.07.21-.15.41-.23.62a7.72,7.72,0,0,0-.49,1.59,2.68,2.68,0,0,0,.55,2.23,2.34,2.34,0,0,0,1.79.85,2.58,2.58,0,0,0,1.95-1,23.34,23.34,0,0,0,2.07-2.93c1.49-2.36,2.67-4.24,5.59-4.5l.33,0a1.79,1.79,0,0,1,1.47.6,2.32,2.32,0,0,1,.12,2c-.09.28-.2.57-.3.85a12.71,12.71,0,0,0-.53,1.65,2.92,2.92,0,0,0,.52,2.44,2.19,2.19,0,0,0,1.74.87,2.44,2.44,0,0,0,1.17-.31,3.81,3.81,0,0,0,1.36-1.48q.09-.16.18-.3l1.76-2.63c1.33-2,2.57-3.31,4.63-3.65a3.65,3.65,0,0,1,.72-.07,2,2,0,0,1,1.62.65,2.4,2.4,0,0,1,.07,2.13c-.08.25-.17.49-.26.74a11.77,11.77,0,0,0-.55,1.71,2.79,2.79,0,0,0,.54,2.31,2.31,2.31,0,0,0,1.8.89,2.44,2.44,0,0,0,1.59-.62,11.29,11.29,0,0,0,2.24-3.07c.26-.45.5-.87.73-1.22,1.47-2.22,2.83-3.22,4.67-3.48a6.88,6.88,0,0,1,.9,0h1a4.85,4.85,0,0,0,3.71-1.13,17.22,17.22,0,0,0,2.26-3.17c1.17-1.94,2.18-3.61,4.42-4.19a10.58,10.58,0,0,1,2.37-.24,14.72,14.72,0,0,0,2.35-.2,2.88,2.88,0,0,0,1.5-.74,10.67,10.67,0,0,0,1.65-2.33c.2-.35.4-.68.59-1l.19-.28c1.07-1.62,2-3,3.69-3.69a9.24,9.24,0,0,1,3.07-.46,18.3,18.3,0,0,0,2.18-.18,2.79,2.79,0,0,0,1.54-.68,8.46,8.46,0,0,0,1.52-2.09c.17-.29.33-.57.5-.82l.46-.71a9.38,9.38,0,0,1,3.09-3.43,9.19,9.19,0,0,1,4-.79c.52,0,1-.06,1.59-.12a3.08,3.08,0,0,0,2.3-1.24,2.24,2.24,0,0,0,.22-2c-.52-1.64-2.12-1.73-3.07-1.78l-.43,0c-1.65-.16-1.85-1-1.93-1.3a3.28,3.28,0,0,1,.32-1.78l.15-.42a5.21,5.21,0,0,1,.2-.54,5.22,5.22,0,0,0,.51-2.24,2.24,2.24,0,0,0-2.28-2.23,2.88,2.88,0,0,0-2.16,1,24.63,24.63,0,0,0-2,2.91c-.33.54-.64,1.05-1,1.53a6.46,6.46,0,0,1-1.74,1.87.86.86,0,0,1-.44.18s0,0-.08,0a1.6,1.6,0,0,1-.13-1.22c.06-.23.21-.6.36-1,.57-1.41,1.52-3.77-.33-4.95a2.28,2.28,0,0,0-1.24-.38c-1.69,0-2.82,1.94-3.56,3.22-.14.24-.26.45-.37.6l-.35.55c-1,1.45-1.85,2.82-3.36,3.52a8.75,8.75,0,0,1-3.35.59,19.06,19.06,0,0,0-2.08.18A3,3,0,0,0,785,79.58a2.26,2.26,0,0,0,.17,2.17A3.2,3.2,0,0,0,788.1,83a5.68,5.68,0,0,1,.59,0c.37,0,1.59.28,1.56,1.18s-1.46,1.69-2.79,2a10.28,10.28,0,0,1-2.4.25,14.25,14.25,0,0,0-2.4.21,2.63,2.63,0,0,0-1.3.58,5.45,5.45,0,0,0-1.18,1.57c-.11.18-.21.36-.31.51-.26.38-.51.78-.76,1.19a14.43,14.43,0,0,1-2.28,3.06c-1.48,1.35-3.3,1.47-5.41,1.62l-.36,0h-.38a3.92,3.92,0,0,0-2,.44,2.58,2.58,0,0,0-.79.8l-.07.1c-.65.88-1.24,1.8-1.82,2.69-.36.57-.72,1.13-1.1,1.68a6.07,6.07,0,0,1-4.83,2.82h-.38a1.53,1.53,0,0,1-1.19-.5c-.52-.79.13-2.73.4-3.56,0-.09.07-.19.1-.29.31-.88.84-2.37-.43-3.49a2.3,2.3,0,0,0-1.53-.62,2.94,2.94,0,0,0-2.35,1.48c-.5.71-1,1.44-1.43,2.15s-.94,1.44-1.43,2.14a6.55,6.55,0,0,1-4.66,2.77,3,3,0,0,1-1-.17c-1.14-.43-1.21-1.25-.31-3.84.06-.17.11-.33.17-.49l0-.07c.28-.85.81-2.42-.61-3.47a3.87,3.87,0,0,0-2.4-.59,4.28,4.28,0,0,1-.86-.06c-.8-.19-1-.53-1.06-.64-.44-.8.09-2.4.49-3.57l.08-.24.06-.18a2.87,2.87,0,0,0-.23-3,3.49,3.49,0,0,0-2.81-1,5.17,5.17,0,0,1-.86-.06c-.81-.19-1-.53-1.07-.65-.44-.79.1-2.38.49-3.54l.09-.27.06-.17a2.89,2.89,0,0,0-.23-3,3.53,3.53,0,0,0-2.83-1,4.44,4.44,0,0,1-.88-.06,1.57,1.57,0,0,1-1.07-.85.75.75,0,0,1,.08-.73c.71-1.1,2.48-1.65,3.78-1.79.21,0,.5,0,.75,0h.68c1.38,0,2.91-.08,3.78-1a2.26,2.26,0,0,0,.52-2.28,2.85,2.85,0,0,0-2.21-1.77,6.16,6.16,0,0,0-1.2-.08,4,4,0,0,1-1.11-.11,1,1,0,0,1-.58-.59A1.36,1.36,0,0,1,737,67.5c.63-1,2.27-1.52,3.6-1.65.23,0,.58,0,1,0,1.59,0,3.75,0,4.55-1.53a2.55,2.55,0,0,0,.46.62,2.3,2.3,0,0,0,1.61.69,3,3,0,0,0,2.34-1.39c.38-.53.75-1.11,1.14-1.72,1.63-2.54,3.49-5.42,6.23-5.42a4.92,4.92,0,0,1,1,.11c.71.16.88.46.94.56.43.77-.11,2.38-.46,3.44l0,.12c0,.1-.07.2-.1.3a3.11,3.11,0,0,0,0,2.87,2.24,2.24,0,0,0,1.92,1.13,3,3,0,0,0,2.27-1.25c.56-.71,1.07-1.51,1.57-2.29,1.64-2.53,3.18-4.92,6.1-4.92a3.93,3.93,0,0,1,.48,0,1.57,1.57,0,0,1,1.52,1.61,6.29,6.29,0,0,1-.49,1.75c-.09.24-.17.47-.25.7s-.07.21-.11.32a3.23,3.23,0,0,0,0,2.89,2.23,2.23,0,0,0,1.94,1.16,3,3,0,0,0,2.28-1.24c.55-.72,1.07-1.51,1.57-2.29,1.63-2.53,3.17-4.92,6.09-4.92a3.85,3.85,0,0,1,.48,0,1.47,1.47,0,0,1,1.18.49c.53.81-.13,2.79-.35,3.44,0,.11-.08.24-.13.36A3.7,3.7,0,0,0,785,64a2.23,2.23,0,0,0,2.14,1.6,3,3,0,0,0,2.22-1.1,30.53,30.53,0,0,0,1.84-2.64c1.59-2.49,3-4.64,6.1-4.67h0A1.67,1.67,0,0,1,799,58.24a3.41,3.41,0,0,1-.32,1.93l-.15.42c-.05.16-.12.34-.2.53a5.38,5.38,0,0,0-.5,2.06,2.32,2.32,0,0,0,2.35,2.37,2.69,2.69,0,0,0,2.06-1,25.82,25.82,0,0,0,2-2.8c1.54-2.43,2.87-4.52,5.92-4.6h.09a1.74,1.74,0,0,1,1.45.59,2.22,2.22,0,0,1,.14,2,7,7,0,0,1-.27.72c-.51,1.27-1.29,3.19,0,4.46a2.17,2.17,0,0,0,1.53.66c1.82,0,3.29-2.25,4.89-5,.29-.49.56-1,.71-1.15a6.15,6.15,0,0,1,4.73-2.3c.19,0,.44,0,.72,0,1.53,0,4.11,0,4.52-2.17a2.27,2.27,0,0,0-.36-1.9C827.63,52.14,826.33,52,825.3,52ZM407.12,58.81c1.64-1.59,3.86-1.75,6.59-1.8h1.12a3.14,3.14,0,0,1,2,.48,1,1,0,0,1,.35.66,1.2,1.2,0,0,1-.39.84c-1.61,1.64-4.43,1.66-6.7,1.68h-.87a3.15,3.15,0,0,1-2-.47,1,1,0,0,1-.37-.75A.86.86,0,0,1,407.12,58.81Zm-4.3,8.64c1.41-1.63,4-1.7,6.26-1.77h.05l.45,0,.9,0a3.33,3.33,0,0,1,2,.42,1.15,1.15,0,0,1,.47.81.77.77,0,0,1-.24.6c-1.64,1.62-3.87,1.79-6.62,1.84h-1.12a3.42,3.42,0,0,1-1.94-.41,1.06,1.06,0,0,1-.44-.7A1,1,0,0,1,402.82,67.45Zm-96.27-6.79c-.31,0-.73.05-1.15.05-2.41,0-2.6-.81-2.66-1.07a1,1,0,0,1,.14-.88c.6-.84,2.57-1.48,5.27-1.71h.08c.69-.06,1.39-.12,2.08-.12a6.67,6.67,0,0,1,1.73.19,1.54,1.54,0,0,1,1.07,1,.7.7,0,0,1-.23.72c-1.55,1.52-3.51,1.66-5.79,1.81Zm10.66-10.52c-1.55,1.54-3.52,1.67-5.81,1.82l-.6,0c-.35,0-.67,0-1,0C308,52,307,51.62,307,50.79s1.87-1.89,3.16-2.16a14.5,14.5,0,0,1,2.05-.21l.7,0c.55,0,1.16-.08,1.75-.08a8.73,8.73,0,0,1,1.34.1,1.9,1.9,0,0,1,1.43,1.05C317.5,49.55,317.58,49.78,317.21,50.14Zm.69-7-1.08.09c-.8.07-1.55.14-2.29.14H314a3.7,3.7,0,0,1-2.19-.49c-.4-.35-.38-.59-.38-.67a2.44,2.44,0,0,1,1.24-1.45,7.52,7.52,0,0,1,3.65-1l.86-.07c.65-.06,1.33-.12,2-.12a5.08,5.08,0,0,1,1.71.23,1.38,1.38,0,0,1,.91.83.85.85,0,0,1-.17.78A5.33,5.33,0,0,1,317.9,43.14Zm76.22.13-.42,0-.39,0a3.55,3.55,0,0,0-2.64.88,2.28,2.28,0,0,0-.56,2.31,2.89,2.89,0,0,0,2.28,1.77,7.55,7.55,0,0,0,1,.09,3,3,0,0,1,1.43.29,1.21,1.21,0,0,1,.57.85.81.81,0,0,1-.26.68c-1.53,1.48-3.44,1.62-5.66,1.77l-.39,0h-.29A3,3,0,0,0,386,53.37a2.23,2.23,0,0,0-.05,2.14A3.11,3.11,0,0,0,388.31,57l.67,0a2.82,2.82,0,0,1,1.73.45.84.84,0,0,1,.36.67,1.82,1.82,0,0,1-.81,1.19c-1.43,1.07-3.19,1.18-5.06,1.3l-.79.05c-.78,0-2.61.18-3,2a2.27,2.27,0,0,0,.34,1.89,3.73,3.73,0,0,0,2.77,1.13h.09c1,.08,1.57.15,1.94.63a.75.75,0,0,1,.19.6,2.65,2.65,0,0,1-1.28,1.39,9,9,0,0,1-4.32,1l-1.42.1a3.17,3.17,0,0,0-2.36,1.22,2.24,2.24,0,0,0-.23,2c.51,1.67,2.13,1.75,3.09,1.8.16,0,.31,0,.46,0,1.17.11,1.49.46,1.64.74a.75.75,0,0,1,.07.6,3.39,3.39,0,0,1-1.74,1.51,8.55,8.55,0,0,1-3.41.63,17.27,17.27,0,0,0-2.21.2,2.87,2.87,0,0,0-2.15,1.52,2.28,2.28,0,0,0,.15,2.16,3.18,3.18,0,0,0,2.9,1.28,5.54,5.54,0,0,1,.59,0c.44.06,1.47.27,1.56,1,.11,1-1.48,1.76-2.44,2.08a9.75,9.75,0,0,1-2.86.38,19.49,19.49,0,0,0-2.13.17,2.85,2.85,0,0,0-1.46.6,5.25,5.25,0,0,0-1.07,1.42c-.09.15-.18.31-.27.44-.27.41-.54.84-.81,1.27a17.31,17.31,0,0,1-2.12,3c-1.41,1.45-3.25,1.69-5.5,1.85h-.53a4.72,4.72,0,0,0-2.29.43,2.66,2.66,0,0,0-.73.65l0,0a22.3,22.3,0,0,0-2,2.88c-.29.46-.57.92-.86,1.36a6.27,6.27,0,0,1-4.8,3.17h-.36c-1.37,0-1.64-.72-1.73-1a3.14,3.14,0,0,1,.28-2.06c.05-.14.1-.27.14-.41s.14-.36.21-.55a5.46,5.46,0,0,0,.51-1.86,2.44,2.44,0,0,0-.65-1.82,2.35,2.35,0,0,0-1.72-.71,2.7,2.7,0,0,0-2.06,1,22,22,0,0,0-1.89,2.75c-.27.44-.54.88-.82,1.3-1.37,2.06-2.83,3.08-4.73,3.31l-.56,0c-1.06,0-1.43-.42-1.61-.74-.34-.6-.15-1.24.18-2.23l.06-.19c.06-.17.14-.35.22-.55.39-1,1-2.39.21-3.59a2.64,2.64,0,0,0-2.16-1.14c-.29,0-.56-.06-.82-.07a3.3,3.3,0,0,1-1.34-.25,1.78,1.78,0,0,1-.72-2.23c.07-.22.2-.52.34-.84.48-1.12,1.15-2.66.47-4a2.67,2.67,0,0,0-2.29-1.33l-.78-.07a3.25,3.25,0,0,1-1.45-.3,1.75,1.75,0,0,1-.62-2.17,7.1,7.1,0,0,1,.33-.84c.49-1.12,1.16-2.67.48-4a2.57,2.57,0,0,0-1.9-1.29,7.77,7.77,0,0,0-1.22-.11,3.7,3.7,0,0,1-1.18-.16,1.27,1.27,0,0,1-.77-.82,1,1,0,0,1,.26-.87c1.27-1.45,3.36-1.59,5.39-1.72l.62,0,.3,0A3,3,0,0,0,329.67,73a2.25,2.25,0,0,0,.05-2.15,3.08,3.08,0,0,0-2.4-1.44c-.22,0-.45,0-.67,0a2.79,2.79,0,0,1-1.73-.46c-.39-.34-.37-.58-.36-.67a2.27,2.27,0,0,1,1.1-1.38,8.83,8.83,0,0,1,4.51-1.07c.4,0,.8,0,1.19-.09,2.63-.23,2.95-1.73,2.91-2.6-.11-2.16-2.16-2.31-3.14-2.38l-.28,0c-1.15-.1-1.65-.31-1.89-.79a.73.73,0,0,1-.06-.58,3.43,3.43,0,0,1,1.73-1.49,8.65,8.65,0,0,1,3.47-.65,20.51,20.51,0,0,0,2.16-.18,2.86,2.86,0,0,0,2.25-1.81,2.27,2.27,0,0,0-.6-2.34,3.48,3.48,0,0,0-2.57-.82,5.59,5.59,0,0,1-.62,0c-.25,0-1.48-.25-1.52-1.11S334.81,49,336,48.71a9.51,9.51,0,0,1,2.25-.21,11,11,0,0,0,2.77-.3,2.56,2.56,0,0,0,1.89-2.35,2.34,2.34,0,0,0-1.6-2.32,4.91,4.91,0,0,0-1.73-.24,4,4,0,0,1-.95-.07,1.55,1.55,0,0,1-1-.83.79.79,0,0,1,.09-.75c.65-1,2.36-1.63,3.77-1.78.21,0,.5,0,.76,0h.65c1.37,0,2.9-.08,3.77-1a2.26,2.26,0,0,0,.55-2.3,2.88,2.88,0,0,0-2.28-1.78,9.25,9.25,0,0,0-1-.1,2.5,2.5,0,0,1-1.63-.43c-.56-.5-.47-.76-.45-.84.31-.94,2.77-2,4.08-2.17a12.51,12.51,0,0,1,1.26-.05,11.33,11.33,0,0,0,2.52-.24A2.65,2.65,0,0,0,351.1,30,18.7,18.7,0,0,0,353,27.3c.26-.43.51-.85.78-1.25,1-1.54,2.26-3,4.32-3.42a11.73,11.73,0,0,1,2-.16,13.17,13.17,0,0,0,2.39-.21,3.39,3.39,0,0,0,2.26-1.85L365,20l.83-1.29c.56-.88,1.15-1.79,1.78-2.61a6.78,6.78,0,0,1,4.54-2.39,1.77,1.77,0,0,1,1.5.66c.58.72.29,1.64-.26,3.07a12.27,12.27,0,0,0-.5,1.52,3,3,0,0,0,.48,2.46,2.22,2.22,0,0,0,1.75.84,2.34,2.34,0,0,0,.64-.08,3.26,3.26,0,0,0,1.92-1.71l.18-.28.84-1.28c.54-.83,1.1-1.69,1.68-2.5a6.93,6.93,0,0,1,4.7-2.72,2,2,0,0,1,1.4.49c.76.68.54,1.56-.1,3.27a14.23,14.23,0,0,0-.49,1.48l0,.12a2.68,2.68,0,0,0-.05,1.38,2.4,2.4,0,0,0,1,1.41,4.61,4.61,0,0,0,2.52.64c1,0,1.42.08,1.8.79s.1,1.52-.39,2.77a10.42,10.42,0,0,0-.57,1.74,2.64,2.64,0,0,0,0,1.43c.52,1.67,2.16,1.74,3.14,1.78l.61,0c.4.06,1.73.33,1.73,1.66a5.49,5.49,0,0,1-.45,1.68c-.09.23-.17.45-.24.67s-.1.26-.15.39a4.26,4.26,0,0,0-.41,2,2.5,2.5,0,0,0,2.17,2.16,7.86,7.86,0,0,0,1.23.12,3.16,3.16,0,0,1,1.17.16,1.22,1.22,0,0,1,.76.81,1,1,0,0,1-.27.89C398.16,43,396.11,43.13,394.12,43.27ZM403,77.92h-.16c-.42,0-1,.06-1.62.06-2.18,0-2.78-.47-2.94-.67s-.18-.24,0-.75c.47-1.89,4.09-2.09,5.82-2.19l.58,0c.48,0,1-.07,1.45-.07a4,4,0,0,1,1.8.31,1.29,1.29,0,0,1,.7.91.7.7,0,0,1-.23.64C406.9,77.56,405.06,77.78,403,77.92ZM572.35,50.66c-1.43,1.07-3.19,1.18-5.07,1.29l-.78,0c-.78.06-2.61.19-3,2a2.24,2.24,0,0,0,.34,1.88A3.65,3.65,0,0,0,566.62,57h.09c1,.07,1.57.14,1.94.63a.75.75,0,0,1,.19.6,2.61,2.61,0,0,1-1.28,1.38,9.09,9.09,0,0,1-4.32,1c-.47,0-.94,0-1.42.1a3.14,3.14,0,0,0-2.36,1.22,2.23,2.23,0,0,0-.23,2c.51,1.67,2.13,1.76,3.09,1.8l.46,0c1.17.12,1.49.46,1.64.75a.75.75,0,0,1,.07.6,3.39,3.39,0,0,1-1.74,1.51,8.59,8.59,0,0,1-3.41.63,17.27,17.27,0,0,0-2.21.2A2.85,2.85,0,0,0,555,70.91a2.29,2.29,0,0,0,.15,2.16,3.16,3.16,0,0,0,2.9,1.27l.59,0c.44.06,1.47.27,1.56,1,.11,1-1.48,1.75-2.44,2.08a9.07,9.07,0,0,1-2.71.35,15.89,15.89,0,0,0-2.34.21,2.77,2.77,0,0,0-2.2,2.13,2.26,2.26,0,0,0,1.11,2.36,4,4,0,0,0,2.15.46,6.81,6.81,0,0,1,.7,0,2.16,2.16,0,0,1,1.11.5.8.8,0,0,1,.27.77c-.13.82-1.49,1.6-2.77,2a10.13,10.13,0,0,1-2.39.25,14.16,14.16,0,0,0-2.4.21,4,4,0,0,0-2.59,2.3c-.11.2-.23.4-.35.58-.24.36-.47.73-.71,1.11a13.72,13.72,0,0,1-2.18,2.92C541,95,539.14,95.11,537,95.26l-.37,0-.34,0a3.3,3.3,0,0,0-2.81,1.21c-.63.8-1.19,1.66-1.73,2.5-1.62,2.53-3,4.71-6.11,4.79h-.07c-.3,0-1.82-.08-1.83-1.54a5.28,5.28,0,0,1,.44-1.65c.08-.21.15-.42.22-.62s.1-.27.15-.42a4.22,4.22,0,0,0,.42-2.13,2.22,2.22,0,0,0-2.26-2,2.92,2.92,0,0,0-2.19,1,25.63,25.63,0,0,0-1.94,2.76c-1.49,2.33-2.77,4.35-5.75,4.56h-.25a1.61,1.61,0,0,1-1.81-1.23,4,4,0,0,1,.4-1.89l.19-.54c.05-.15.11-.3.17-.46a4.57,4.57,0,0,0,.46-2.1c-.09-.93-.66-2.08-2.84-2.25l-.31,0a3,3,0,0,1-1.94-.54c-.53-.52-.59-1.12-.21-2.3.09-.26.2-.54.32-.84a7.81,7.81,0,0,0,.63-2.14,2.35,2.35,0,0,0-.5-1.81,3.27,3.27,0,0,0-2.32-1l-.36,0a2.88,2.88,0,0,1-1.89-.54c-.53-.5-.58-1.12-.21-2.29.09-.27.2-.55.32-.85a7.71,7.71,0,0,0,.63-2.14A2.51,2.51,0,0,0,501,78a8.94,8.94,0,0,0-1-.08,3.11,3.11,0,0,1-1.44-.29,1,1,0,0,1-.54-.74,1.71,1.71,0,0,1,.77-1.25c1.43-1.08,3.19-1.19,5.05-1.31l.71-.05h.06c.93-.07,2.66-.19,3-2a2.27,2.27,0,0,0-.35-1.89,3.64,3.64,0,0,0-2.76-1.12h-.08c-1-.07-1.58-.14-1.95-.63a.7.7,0,0,1-.2-.62,2.87,2.87,0,0,1,1.42-1.45,8,8,0,0,1,3.75-.81c.67,0,1.36-.08,2.07-.19a3,3,0,0,0,2.3-1.54,2.24,2.24,0,0,0-.16-2.15,3.13,3.13,0,0,0-2.9-1.28c-.18,0-.35,0-.51,0-.43,0-1.44-.23-1.63-.94-.24-.91,1.32-1.8,2.42-2.18a9.49,9.49,0,0,1,2.71-.36,13.9,13.9,0,0,0,2.37-.21,2.75,2.75,0,0,0,2.17-2.12,2.25,2.25,0,0,0-1.1-2.37,4,4,0,0,0-2.15-.46,6.81,6.81,0,0,1-.7,0,2,2,0,0,1-1.33-.78.71.71,0,0,1,0-.67c.36-.93,2.08-1.72,3.46-1.92a8,8,0,0,1,1,0h1a5.84,5.84,0,0,0,3.14-.64,2.29,2.29,0,0,0,1.09-2.39,2.73,2.73,0,0,0-2.16-2.08,8.57,8.57,0,0,0-1.19-.12,2.79,2.79,0,0,1-1.43-.28c-.28-.17-.74-.51-.68-.81.21-.87,2.68-2.2,4-2.34.22,0,.56,0,.93,0,1.62,0,4.35,0,4.8-2.15a2.22,2.22,0,0,0-.34-1.84,3.27,3.27,0,0,0-2.35-1.15l-.53,0c-1-.07-1.54-.14-1.92-.62s-.27-.75-.22-.86c.43-1,2.89-1.89,4.28-2,.22,0,.47,0,.72,0h.48c1,0,2.76,0,3.8-1.21a26,26,0,0,0,2-2.85c1.51-2.38,2.7-4.26,5.63-4.56l.62,0h1.12a4.91,4.91,0,0,0,3.25-.84,5.11,5.11,0,0,0,1.07-1.42l.27-.44c.27-.41.54-.84.81-1.27a17.22,17.22,0,0,1,2.12-3,6.8,6.8,0,0,1,4.12-1.82,1.62,1.62,0,0,1,1.6.81c.4.71.13,1.52-.36,2.76a11.21,11.21,0,0,0-.58,1.78,2.8,2.8,0,0,0,.58,2.31,2.29,2.29,0,0,0,1.76.87,2.49,2.49,0,0,0,1.6-.63,5,5,0,0,0,1-1.35c.08-.15.17-.28.25-.41.28-.42.55-.85.82-1.28a23.78,23.78,0,0,1,1.94-2.79,6.71,6.71,0,0,1,4.33-2.09,1.74,1.74,0,0,1,1.56.74c.49.72.21,1.6-.32,3a11,11,0,0,0-.55,1.65,2.48,2.48,0,0,0,1.61,3.06,7.59,7.59,0,0,0,1.88.33c1.38.12,1.79.21,2,1.29a4.72,4.72,0,0,1-.54,2.24,9.4,9.4,0,0,0-.61,1.81,2.46,2.46,0,0,0,1.38,2.9,4.69,4.69,0,0,0,1.87.3,3.74,3.74,0,0,1,.86.06c.84.18,1,.53,1.1.64.44.79-.08,2.36-.47,3.51l0,.06c0,.1-.07.2-.1.3a3,3,0,0,0,.13,3,2.59,2.59,0,0,0,1.86,1c.34,0,.67.07,1,.09a3,3,0,0,1,1.45.29,1.19,1.19,0,0,1,.57.84.84.84,0,0,1-.26.69c-1.53,1.48-3.44,1.61-5.66,1.77l-.39,0-.29,0a3,3,0,0,0-2.84,1.38,2.23,2.23,0,0,0,0,2.14,3.11,3.11,0,0,0,2.39,1.45l.67.05a2.7,2.7,0,0,1,1.73.45.83.83,0,0,1,.36.67A1.81,1.81,0,0,1,572.35,50.66ZM684.67,67.48c1.16-1.38,3.11-1.61,5.34-1.75l.64,0c.53,0,1.07-.08,1.6-.08a4.66,4.66,0,0,1,1.73.26,1.34,1.34,0,0,1,.8.93.7.7,0,0,1-.23.68c-1.44,1.43-3.32,1.66-5.46,1.79l-.55,0c-.51,0-1,.07-1.56.07a5.27,5.27,0,0,1-1.64-.21,1.33,1.33,0,0,1-.9-.84A.87.87,0,0,1,684.67,67.48Zm5.55,8.65c-1.59,1.58-3.75,1.76-6.41,1.84l-.44,0-.9,0a3.68,3.68,0,0,1-1.82-.34,1.06,1.06,0,0,1-.56-.75,1,1,0,0,1,.34-.86c1.55-1.63,4.18-1.68,6.5-1.72h.42l.71,0a3.37,3.37,0,0,1,1.91.41,1.18,1.18,0,0,1,.49.82A.7.7,0,0,1,690.22,76.13Zm34.83-17.34c-1.44,1.44-3.34,1.67-5.31,1.79l-.18,0c-.43,0-1,.06-1.66.06-2.18,0-2.79-.47-2.94-.67s-.19-.24-.06-.76c.5-1.92,4.25-2.11,6.05-2.2h.1l.49,0c.41,0,.83,0,1.25,0a3.66,3.66,0,0,1,1.86.35,1.23,1.23,0,0,1,.63.86A.73.73,0,0,1,725.05,58.79Zm4.32-8.65c-1.44,1.43-3.28,1.65-5.35,1.78l-.66,0c-.53,0-1.07.09-1.6.09a4,4,0,0,1-1.85-.33,1.2,1.2,0,0,1-.67-.79,1,1,0,0,1,.26-.81c1.27-1.48,3.45-1.61,5.38-1.73l.59,0c.52,0,1.06-.08,1.58-.08a4.87,4.87,0,0,1,1.7.24,1.42,1.42,0,0,1,.85.93A.7.7,0,0,1,729.37,50.14Zm4.34-8.67c-1.44,1.43-3.33,1.66-5.31,1.79h-.17c-.44,0-1,.07-1.66.07-2.19,0-2.79-.47-3-.68,0-.06-.19-.24,0-.76.49-1.92,4.24-2.1,6-2.19h.09l.49,0c.41,0,.84,0,1.26,0a3.84,3.84,0,0,1,1.86.34,1.26,1.26,0,0,1,.62.86A.73.73,0,0,1,733.71,41.47Zm75.5,1.89-.2,0a2.67,2.67,0,0,0-1.19.29,3.22,3.22,0,0,0-1.19,1.23l-.12.2c-.32.48-.63,1-1,1.51a14.66,14.66,0,0,1-3.14,4,6,6,0,0,1-3.36,1.22,3.41,3.41,0,0,1-.65-.07,1.32,1.32,0,0,1-1-.64,2.23,2.23,0,0,1-.09-1.76c.09-.29.22-.61.35-.95a7.63,7.63,0,0,0,.68-2.43,2.41,2.41,0,0,0-.62-1.87,2.22,2.22,0,0,0-1.63-.67,3,3,0,0,0-2.37,1.24c-.48.68-.93,1.4-1.36,2.1a18,18,0,0,1-2.33,3.26,5.81,5.81,0,0,1-4,1.75h0a1.78,1.78,0,0,1-1.46-.61,1.85,1.85,0,0,1-.23-1.64,12.1,12.1,0,0,1,.42-1.24,13.13,13.13,0,0,0,.54-1.64,2.81,2.81,0,0,0-.49-2.39,2.31,2.31,0,0,0-1.8-.88,2.61,2.61,0,0,0-2,1,23.49,23.49,0,0,0-2,2.87c-.45.73-.87,1.42-1.35,2.07a5.89,5.89,0,0,1-4.29,2.41l-.27,0a2.15,2.15,0,0,1-1.56-.56,1.35,1.35,0,0,1-.37-1,7,7,0,0,1,.56-2c.13-.34.27-.68.37-1l0-.14a3,3,0,0,0,.13-1.95A2.34,2.34,0,0,0,770,43.42a2.59,2.59,0,0,0-1.81.75,15,15,0,0,0-2.34,3.31c-.36.61-.7,1.19-1.06,1.7a7.67,7.67,0,0,1-5,2.76,1.5,1.5,0,0,1-1.56-1.07,3.87,3.87,0,0,1,.39-2.45c.08-.22.16-.43.23-.64.3-.89.69-2.55-.08-3.61a2,2,0,0,0-1.67-.8,3.34,3.34,0,0,0-.68.07,2.87,2.87,0,0,0-1.66,1.18,1,1,0,0,0-.11-.17c-.7-1-2-1.06-3-1.14l-.33,0a2.19,2.19,0,0,1-1.68-.94c0-.09-.15-.34.18-.79a5.67,5.67,0,0,1,3.92-1.72c.37,0,.74,0,1.13-.05a14.09,14.09,0,0,0,2.23-.19,2.5,2.5,0,0,0,2.18-2.43,2.55,2.55,0,0,0-2.22-2.43,8.89,8.89,0,0,0-1.12-.12c-.95-.07-1.46-.12-1.82-.64a.68.68,0,0,1-.15-.69,4.18,4.18,0,0,1,2.41-1.8,8.78,8.78,0,0,1,2.61-.31,11.34,11.34,0,0,0,2.75-.29,3,3,0,0,0,1.84-1.51l.09-.14c.33-.48.63-1,1-1.52a14.4,14.4,0,0,1,3.13-4,7.14,7.14,0,0,1,4.23-1.16,17.54,17.54,0,0,0,2.51-.26,2.75,2.75,0,0,0,1.72-1,25.42,25.42,0,0,0,2-2.92c.42-.66.8-1.29,1.23-1.89a6,6,0,0,1,4.4-2.57h.28c.43,0,1.84.1,1.9,1.46a5.74,5.74,0,0,1-.55,2.15c-.12.31-.24.63-.34.92a3.77,3.77,0,0,0,.36,3.14,2,2,0,0,0,1.6.83,2.74,2.74,0,0,0,1.28-.36,4.9,4.9,0,0,0,1.72-2c.11-.18.21-.35.31-.5l.64-1c.42-.64.84-1.29,1.28-1.92.8-1.15,3.2-2.89,5-2.89a1.58,1.58,0,0,1,1.56,1c.35.7.08,1.48-.41,2.7a9.23,9.23,0,0,0-.62,1.95,2.37,2.37,0,0,0,.41,1.93,4,4,0,0,0,3,1.12,2.72,2.72,0,0,1,1.86.81,1.42,1.42,0,0,1,.25,1.15,9.64,9.64,0,0,1-.58,1.89c-.14.36-.28.73-.4,1.11l0,.08a2.86,2.86,0,0,0-.08,1.95,2.5,2.5,0,0,0,2,1.57,10.2,10.2,0,0,0,1.17.13c.9.06,1.38.11,1.81.58.57.65.43,1.32,0,2.7l-.07.21-.17.48a4.23,4.23,0,0,0-.31,3.22,2.43,2.43,0,0,0,1.45,1.25,4.17,4.17,0,0,0,1.45.19l.5,0a2.36,2.36,0,0,1,1.74.94,1.37,1.37,0,0,1,.11,1.26C811.67,43,810.91,43.19,809.21,43.36Z"/></g></g></svg>