{
    "asset" : {
        "generator" : "Khronos glTF Blender I/O v1.8.19",
        "version" : "2.0"
    },
    "scene" : 0,
    "scenes" : [
        {
            "name" : "Scene",
            "nodes" : [
                0
            ]
        }
    ],
    "nodes" : [
        {
            "mesh" : 0,
            "name" : "moi tout simplement",
            "rotation" : [
                0.7363510131835938,
                -0.02143273875117302,
                0.06455229222774506,
                0.6731722354888916
            ],
            "translation" : [
                -0.45211952924728394,
                1.2048354148864746,
                1.3588364124298096
            ]
        }
    ],
    "materials" : [
        {
            "alphaMode" : "BLEND",
            "name" : "Glass",
            "normalTexture" : {
                "index" : 0
            },
            "occlusionTexture" : {
                "index" : 1
            },
            "pbrMetallicRoughness" : {
                "baseColorTexture" : {
                    "index" : 2
                },
                "metallicRoughnessTexture" : {
                    "index" : 1
                }
            }
        }
    ],
    "meshes" : [
        {
            "name" : "moi tout simplement",
            "primitives" : [
                {
                    "attributes" : {
                        "POSITION" : 0,
                        "NORMAL" : 1
                    },
                    "indices" : 2,
                    "material" : 0
                }
            ]
        }
    ],
    "textures" : [
        {
            "sampler" : 0,
            "source" : 0
        },
        {
            "sampler" : 0,
            "source" : 1
        },
        {
            "sampler" : 0,
            "source" : 2
        }
    ],
    "images" : [
        {
            "bufferView" : 3,
            "mimeType" : "image/png",
            "name" : "Image_2"
        },
        {
            "bufferView" : 4,
            "mimeType" : "image/png",
            "name" : "Image_1"
        },
        {
            "bufferView" : 5,
            "mimeType" : "image/png",
            "name" : "Image_0"
        }
    ],
    "accessors" : [
        {
            "bufferView" : 0,
            "componentType" : 5126,
            "count" : 10845,
            "max" : [
                0.7723414301872253,
                0.8294363021850586,
                1.2524089813232422
            ],
            "min" : [
                -0.6519945859909058,
                -1.034180760383606,
                -0.9867130517959595
            ],
            "type" : "VEC3"
        },
        {
            "bufferView" : 1,
            "componentType" : 5126,
            "count" : 10845,
            "type" : "VEC3"
        },
        {
            "bufferView" : 2,
            "componentType" : 5123,
            "count" : 64389,
            "type" : "SCALAR"
        }
    ],
    "bufferViews" : [
        {
            "buffer" : 0,
            "byteLength" : 130140,
            "byteOffset" : 0
        },
        {
            "buffer" : 0,
            "byteLength" : 130140,
            "byteOffset" : 130140
        },
        {
            "buffer" : 0,
            "byteLength" : 128778,
            "byteOffset" : 260280
        },
        {
            "buffer" : 0,
            "byteLength" : 569215,
            "byteOffset" : 389060
        },
        {
            "buffer" : 0,
            "byteLength" : 5357,
            "byteOffset" : 958276
        },
        {
            "buffer" : 0,
            "byteLength" : 6528,
            "byteOffset" : 963636
        }
    ],
    "samplers" : [
        {
            "magFilter" : 9729,
            "minFilter" : 9987
        }
    ],
    "buffers" : [
        {
            "byteLength" : 970164,
            "uri" : "data:application/octet-stream;base64,"
        }
    ]
}
