{
    "asset" : {
        "generator" : "Khronos glTF Blender I/O v1.8.19",
        "version" : "2.0"
    },
    "scene" : 0,
    "scenes" : [
        {
            "name" : "Scene",
            "nodes" : [
                0
            ]
        }
    ],
    "nodes" : [
        {
            "mesh" : 0,
            "name" : "moi tout simplement",
            "rotation" : [
                0.7363510131835938,
                -0.02143273875117302,
                0.06455229222774506,
                0.6731722354888916
            ],
            "translation" : [
                -0.45211952924728394,
                1.2048354148864746,
                1.3588364124298096
            ]
        }
    ],
    "materials" : [
        {
            "doubleSided" : true,
            "name" : "Degradable Metal",
            "pbrMetallicRoughness" : {}
        }
    ],
    "meshes" : [
        {
            "name" : "moi tout simplement",
            "primitives" : [
                {
                    "attributes" : {
                        "POSITION" : 0,
                        "NORMAL" : 1,
                        "TEXCOORD_0" : 2
                    },
                    "indices" : 3,
                    "material" : 0
                }
            ]
        }
    ],
    "accessors" : [
        {
            "bufferView" : 0,
            "componentType" : 5126,
            "count" : 321,
            "max" : [
                0.7732182145118713,
                0.8633731603622437,
                1.2603759765625
            ],
            "min" : [
                -0.6619464755058289,
                -1.0367611646652222,
                -1.005383849143982
            ],
            "type" : "VEC3"
        },
        {
            "bufferView" : 1,
            "componentType" : 5126,
            "count" : 321,
            "type" : "VEC3"
        },
        {
            "bufferView" : 2,
            "componentType" : 5126,
            "count" : 321,
            "type" : "VEC2"
        },
        {
            "bufferView" : 3,
            "componentType" : 5123,
            "count" : 321,
            "type" : "SCALAR"
        }
    ],
    "bufferViews" : [
        {
            "buffer" : 0,
            "byteLength" : 3852,
            "byteOffset" : 0
        },
        {
            "buffer" : 0,
            "byteLength" : 3852,
            "byteOffset" : 3852
        },
        {
            "buffer" : 0,
            "byteLength" : 2568,
            "byteOffset" : 7704
        },
        {
            "buffer" : 0,
            "byteLength" : 642,
            "byteOffset" : 10272
        }
    ],
    "buffers" : [
        {
            "byteLength" : 10916,
            "uri" : "data:application/octet-stream;base64,"
        }
    ]
}
