{
    "asset" : {
        "generator" : "Khronos glTF Blender I/O v1.8.19",
        "version" : "2.0"
    },
    "scene" : 0,
    "scenes" : [
        {
            "name" : "Scene",
            "nodes" : [
                0
            ]
        }
    ],
    "nodes" : [
        {
            "mesh" : 0,
            "name" : "moi tout simplement",
            "rotation" : [
                0.7363510131835938,
                -0.02143273875117302,
                0.06455229222774506,
                0.6731722354888916
            ],
            "translation" : [
                -0.45211952924728394,
                1.2048354148864746,
                1.3588364124298096
            ]
        }
    ],
    "materials" : [
        {
            "doubleSided" : true,
            "name" : "Degradable Metal",
            "pbrMetallicRoughness" : {}
        }
    ],
    "meshes" : [
        {
            "name" : "moi tout simplement",
            "primitives" : [
                {
                    "attributes" : {
                        "POSITION" : 0,
                        "NORMAL" : 1,
                        "TEXCOORD_0" : 2
                    },
                    "indices" : 3,
                    "material" : 0
                }
            ]
        }
    ],
    "accessors" : [
        {
            "bufferView" : 0,
            "componentType" : 5126,
            "count" : 12247,
            "max" : [
                0.7723414301872253,
                0.8294363021850586,
                1.2524089813232422
            ],
            "min" : [
                -0.6519945859909058,
                -1.034180760383606,
                -0.9867130517959595
            ],
            "type" : "VEC3"
        },
        {
            "bufferView" : 1,
            "componentType" : 5126,
            "count" : 12247,
            "type" : "VEC3"
        },
        {
            "bufferView" : 2,
            "componentType" : 5126,
            "count" : 12247,
            "type" : "VEC2"
        },
        {
            "bufferView" : 3,
            "componentType" : 5123,
            "count" : 64389,
            "type" : "SCALAR"
        }
    ],
    "bufferViews" : [
        {
            "buffer" : 0,
            "byteLength" : 146964,
            "byteOffset" : 0
        },
        {
            "buffer" : 0,
            "byteLength" : 146964,
            "byteOffset" : 146964
        },
        {
            "buffer" : 0,
            "byteLength" : 97976,
            "byteOffset" : 293928
        },
        {
            "buffer" : 0,
            "byteLength" : 128778,
            "byteOffset" : 391904
        }
    ],
    "buffers" : [
        {
            "byteLength" : 520684,
            "uri" : "data:application/octet-stream;base64,"
        }
    ]
}
