{"accessors" : [{"bufferView" : 0, "byteOffset" : 0, "componentType" : 5123, "count" : 64389, "type" : "SCALAR", "max" : [53146], "min" : [0]}, {"bufferView" : 1, "byteOffset" : 0, "componentType" : 5126, "count" : 53147, "type" : "VEC3", "max" : [0.3387629985809326, 2.2225260734558105, 2.1861820220947266], "min" : [-1.067870020866394, -0.058483999222517014, 0.35908201336860657], "name" : "POSITION"}, {"bufferView" : 1, "byteOffset" : 12, "componentType" : 5126, "count" : 53147, "type" : "VEC2", "max" : [1.4021220207214355, 0.7302500009536743], "min" : [-0.5783699750900269, -1.3930079936981201], "name" : "TEXCOORD_0"}, {"bufferView" : 1, "byteOffset" : 20, "componentType" : 5126, "count" : 53147, "type" : "VEC3", "max" : [1.0000022649765015, 0.9997398853302002, 0.9999995827674866], "min" : [-0.9999958276748657, -0.9826909303665161, -0.9988822937011719], "name" : "NORMAL"}], "asset" : {"generator" : "Aspose.3D 22.6.1", "version" : "2.0"}, "buffers" : [{"uri" : "data:application/octet-stream;base64,", "byteLength" : 2189236}], "bufferViews" : [{"buffer" : 0, "byteOffset" : 0, "byteLength" : 128780, "target" : 34963}, {"buffer" : 0, "byteOffset" : 128784, "byteLength" : 2060448, "byteStride" : 32, "target" : 34962}], "meshes" : [{"primitives" : [{"attributes" : {"POSITION" : 1, "TEXCOORD_0" : 2, "NORMAL" : 3}, "indices" : 0, "mode" : 4}], "name" : ""}], "nodes" : [{"mesh" : 0, "name" : "moi_tout_simplement"}], "scene" : 0, "scenes" : [{"nodes" : [0]}]}