{
    "asset" : {
        "generator" : "Khronos glTF Blender I/O v1.8.19",
        "version" : "2.0"
    },
    "scene" : 0,
    "scenes" : [
        {
            "name" : "Scene",
            "nodes" : [
                0
            ]
        }
    ],
    "nodes" : [
        {
            "mesh" : 0,
            "name" : "moi tout simplement",
            "rotation" : [
                0.7363510131835938,
                -0.02143273875117302,
                0.06455229222774506,
                0.6731722354888916
            ],
            "translation" : [
                -0.45211952924728394,
                1.2048354148864746,
                1.3588364124298096
            ]
        }
    ],
    "materials" : [
        {
            "doubleSided" : true,
            "name" : "Degradable Metal",
            "pbrMetallicRoughness" : {}
        }
    ],
    "meshes" : [
        {
            "name" : "moi tout simplement",
            "primitives" : [
                {
                    "attributes" : {
                        "POSITION" : 0,
                        "NORMAL" : 1,
                        "TEXCOORD_0" : 2
                    },
                    "indices" : 3,
                    "material" : 0
                }
            ]
        }
    ],
    "accessors" : [
        {
            "bufferView" : 0,
            "componentType" : 5126,
            "count" : 2628,
            "max" : [
                0.7708280682563782,
                0.8306770324707031,
                1.252299427986145
            ],
            "min" : [
                -0.6544563174247742,
                -1.0310438871383667,
                -0.98983234167099
            ],
            "type" : "VEC3"
        },
        {
            "bufferView" : 1,
            "componentType" : 5126,
            "count" : 2628,
            "type" : "VEC3"
        },
        {
            "bufferView" : 2,
            "componentType" : 5126,
            "count" : 2628,
            "type" : "VEC2"
        },
        {
            "bufferView" : 3,
            "componentType" : 5123,
            "count" : 2628,
            "type" : "SCALAR"
        }
    ],
    "bufferViews" : [
        {
            "buffer" : 0,
            "byteLength" : 31536,
            "byteOffset" : 0
        },
        {
            "buffer" : 0,
            "byteLength" : 31536,
            "byteOffset" : 31536
        },
        {
            "buffer" : 0,
            "byteLength" : 21024,
            "byteOffset" : 63072
        },
        {
            "buffer" : 0,
            "byteLength" : 5256,
            "byteOffset" : 84096
        }
    ],
    "buffers" : [
        {
            "byteLength" : 89352,
            "uri" : "data:application/octet-stream;base64,"
        }
    ]
}
