{"accessors" : [{"bufferView" : 0, "byteOffset" : 0, "componentType" : 5123, "count" : 2628, "type" : "SCALAR", "max" : [2627], "min" : [0]}, {"bufferView" : 1, "byteOffset" : 0, "componentType" : 5126, "count" : 2628, "type" : "VEC3", "max" : [0.34160199761390686, 2.223189115524292, 2.1871190071105957], "min" : [-1.066478967666626, -0.056279998272657394, 0.35805100202560425], "name" : "POSITION"}, {"bufferView" : 1, "byteOffset" : 12, "componentType" : 5126, "count" : 2628, "type" : "VEC2", "max" : [1.3964309692382812, 0.7270050048828125], "min" : [-0.5489460229873657, -1.3611539602279663], "name" : "TEXCOORD_0"}, {"bufferView" : 1, "byteOffset" : 20, "componentType" : 5126, "count" : 2628, "type" : "VEC3", "max" : [0.9999768137931824, 0.9983487725257874, 0.9986620545387268], "min" : [-0.9994149804115295, -0.9773145318031311, -0.9994747042655945], "name" : "NORMAL"}], "asset" : {"generator" : "Aspose.3D 22.6", "version" : "2.0"}, "buffers" : [{"uri" : "data:application/octet-stream;base64,", "byteLength" : 89360}], "bufferViews" : [{"buffer" : 0, "byteOffset" : 0, "byteLength" : 5256, "target" : 34963}, {"buffer" : 0, "byteOffset" : 5260, "byteLength" : 84096, "byteStride" : 32, "target" : 34962}], "meshes" : [{"primitives" : [{"attributes" : {"POSITION" : 1, "TEXCOORD_0" : 2, "NORMAL" : 3}, "indices" : 0, "mode" : 4}], "name" : ""}], "nodes" : [{"mesh" : 0, "name" : "moi_tout_simplement"}], "scene" : 0, "scenes" : [{"nodes" : [0]}]}